%TF.GenerationSoftware,KiCad,Pcbnew,5.1.10-88a1d61d58~90~ubuntu20.04.1*%
%TF.CreationDate,2021-11-21T06:34:40+05:30*%
%TF.ProjectId,555_badge,3535355f-6261-4646-9765-2e6b69636164,rev?*%
%TF.SameCoordinates,Original*%
%TF.FileFunction,Copper,L1,Top*%
%TF.FilePolarity,Positive*%
%FSLAX46Y46*%
G04 Gerber Fmt 4.6, Leading zero omitted, Abs format (unit mm)*
G04 Created by KiCad (PCBNEW 5.1.10-88a1d61d58~90~ubuntu20.04.1) date 2021-11-21 06:34:40*
%MOMM*%
%LPD*%
G01*
G04 APERTURE LIST*
%TA.AperFunction,ComponentPad*%
%ADD10R,2.170000X2.170000*%
%TD*%
%TA.AperFunction,ComponentPad*%
%ADD11C,2.500000*%
%TD*%
%TA.AperFunction,ComponentPad*%
%ADD12C,1.600000*%
%TD*%
%TA.AperFunction,ComponentPad*%
%ADD13R,1.600000X1.600000*%
%TD*%
%TA.AperFunction,ComponentPad*%
%ADD14R,1.800000X1.800000*%
%TD*%
%TA.AperFunction,ComponentPad*%
%ADD15C,1.800000*%
%TD*%
%TA.AperFunction,ComponentPad*%
%ADD16O,1.500000X1.000000*%
%TD*%
%TA.AperFunction,ComponentPad*%
%ADD17R,1.500000X1.000000*%
%TD*%
%TA.AperFunction,ComponentPad*%
%ADD18C,1.400000*%
%TD*%
%TA.AperFunction,ComponentPad*%
%ADD19O,1.400000X1.400000*%
%TD*%
%TA.AperFunction,ComponentPad*%
%ADD20R,1.900000X1.900000*%
%TD*%
%TA.AperFunction,ComponentPad*%
%ADD21C,1.900000*%
%TD*%
%TA.AperFunction,ComponentPad*%
%ADD22C,1.524000*%
%TD*%
%TA.AperFunction,ViaPad*%
%ADD23C,0.019355*%
%TD*%
%TA.AperFunction,Conductor*%
%ADD24C,0.762000*%
%TD*%
%TA.AperFunction,Conductor*%
%ADD25C,0.254000*%
%TD*%
%TA.AperFunction,Conductor*%
%ADD26C,0.100000*%
%TD*%
G04 APERTURE END LIST*
D10*
%TO.P,BAT1,Neg*%
%TO.N,GND*%
X138430000Y-118110000D03*
D11*
%TO.P,BAT1,Pos*%
%TO.N,Net-(BAT1-PadPos)*%
X138430000Y-98110000D03*
%TD*%
D12*
%TO.P,C1,2*%
%TO.N,GND*%
X167640000Y-120872000D03*
D13*
%TO.P,C1,1*%
%TO.N,Net-(C1-Pad1)*%
X167640000Y-118872000D03*
%TD*%
D12*
%TO.P,C2,2*%
%TO.N,GND*%
X176530000Y-121372000D03*
D13*
%TO.P,C2,1*%
%TO.N,Net-(C2-Pad1)*%
X176530000Y-118872000D03*
%TD*%
D14*
%TO.P,D1,1*%
%TO.N,Net-(D1-Pad1)*%
X157480000Y-71374000D03*
D15*
%TO.P,D1,2*%
%TO.N,Net-(D1-Pad2)*%
X157480000Y-68834000D03*
%TD*%
%TO.P,D2,2*%
%TO.N,Net-(D2-Pad2)*%
X148590000Y-68834000D03*
D14*
%TO.P,D2,1*%
%TO.N,Net-(D1-Pad1)*%
X148590000Y-71374000D03*
%TD*%
D16*
%TO.P,Q1,2*%
%TO.N,Net-(Q1-Pad2)*%
X166370000Y-111760000D03*
%TO.P,Q1,3*%
%TO.N,Net-(D1-Pad1)*%
X166370000Y-110490000D03*
D17*
%TO.P,Q1,1*%
%TO.N,GND*%
X166370000Y-113030000D03*
%TD*%
D18*
%TO.P,R1,1*%
%TO.N,VCC*%
X158750000Y-105410000D03*
D19*
%TO.P,R1,2*%
%TO.N,Net-(R1-Pad2)*%
X158750000Y-97790000D03*
%TD*%
D18*
%TO.P,R2,1*%
%TO.N,Net-(R1-Pad2)*%
X162560000Y-97790000D03*
D19*
%TO.P,R2,2*%
%TO.N,Net-(C1-Pad1)*%
X162560000Y-105410000D03*
%TD*%
%TO.P,R3,2*%
%TO.N,Net-(R3-Pad2)*%
X173990000Y-97790000D03*
D18*
%TO.P,R3,1*%
%TO.N,Net-(C2-Pad1)*%
X173990000Y-105410000D03*
%TD*%
D19*
%TO.P,R4,2*%
%TO.N,GND*%
X177800000Y-97790000D03*
D18*
%TO.P,R4,1*%
%TO.N,Net-(C2-Pad1)*%
X177800000Y-105410000D03*
%TD*%
%TO.P,R5,1*%
%TO.N,Net-(Q1-Pad2)*%
X171450000Y-111760000D03*
D19*
%TO.P,R5,2*%
%TO.N,Net-(C2-Pad1)*%
X179070000Y-111760000D03*
%TD*%
%TO.P,R6,2*%
%TO.N,Net-(D1-Pad2)*%
X170180000Y-97790000D03*
D18*
%TO.P,R6,1*%
%TO.N,VCC*%
X170180000Y-105410000D03*
%TD*%
%TO.P,R7,1*%
%TO.N,VCC*%
X166370000Y-105410000D03*
D19*
%TO.P,R7,2*%
%TO.N,Net-(D2-Pad2)*%
X166370000Y-97790000D03*
%TD*%
D20*
%TO.P,S1,1*%
%TO.N,Net-(S1-Pad1)*%
X153670000Y-105410000D03*
D21*
%TO.P,S1,2*%
%TO.N,VCC*%
X153670000Y-102910000D03*
%TO.P,S1,3*%
%TO.N,Net-(BAT1-PadPos)*%
X153670000Y-100410000D03*
%TD*%
D22*
%TO.P,U1,8*%
%TO.N,VCC*%
X153670000Y-114300000D03*
%TO.P,U1,7*%
%TO.N,Net-(R1-Pad2)*%
X156210000Y-114300000D03*
%TO.P,U1,6*%
%TO.N,Net-(C1-Pad1)*%
X158750000Y-114300000D03*
%TO.P,U1,5*%
%TO.N,Net-(U1-Pad5)*%
X161290000Y-114300000D03*
%TO.P,U1,4*%
%TO.N,VCC*%
X161290000Y-121920000D03*
%TO.P,U1,3*%
%TO.N,Net-(R3-Pad2)*%
X158750000Y-121920000D03*
%TO.P,U1,2*%
%TO.N,Net-(C1-Pad1)*%
X156210000Y-121920000D03*
%TO.P,U1,1*%
%TO.N,GND*%
X153670000Y-121920000D03*
%TD*%
D23*
%TO.N,Net-(D1-Pad1)*%
X168148000Y-105664000D03*
%TD*%
D24*
%TO.N,Net-(BAT1-PadPos)*%
X153670000Y-100410000D02*
X151384000Y-98124000D01*
X138444000Y-98124000D02*
X138430000Y-98110000D01*
X151384000Y-98124000D02*
X138444000Y-98124000D01*
D25*
%TO.N,Net-(C1-Pad1)*%
X158750000Y-114300000D02*
X158750000Y-116586000D01*
X161036000Y-118872000D02*
X167640000Y-118872000D01*
X158750000Y-116586000D02*
X161036000Y-118872000D01*
%TO.N,Net-(C2-Pad1)*%
X176530000Y-114300000D02*
X179070000Y-111760000D01*
X176530000Y-118872000D02*
X176530000Y-114300000D01*
X179070000Y-106680000D02*
X177800000Y-105410000D01*
X176784000Y-108204000D02*
X173990000Y-105410000D01*
X179070000Y-108204000D02*
X176784000Y-108204000D01*
X179070000Y-111760000D02*
X179070000Y-108204000D01*
X179070000Y-108204000D02*
X179070000Y-106680000D01*
%TO.N,Net-(D1-Pad1)*%
X166370000Y-107442000D02*
X168148000Y-105664000D01*
X166370000Y-110490000D02*
X166370000Y-107442000D01*
%TO.N,Net-(Q1-Pad2)*%
X166370000Y-111760000D02*
X171450000Y-111760000D01*
D24*
%TO.N,VCC*%
X167680000Y-102910000D02*
X170180000Y-105410000D01*
X166370000Y-103124000D02*
X166584000Y-102910000D01*
X166370000Y-105410000D02*
X166370000Y-103124000D01*
X166584000Y-102910000D02*
X167680000Y-102910000D01*
X158750000Y-103124000D02*
X158964000Y-102910000D01*
X158750000Y-105410000D02*
X158750000Y-103124000D01*
X158964000Y-102910000D02*
X166584000Y-102910000D01*
X153670000Y-102910000D02*
X158964000Y-102910000D01*
D25*
X153670000Y-102910000D02*
X152106000Y-102910000D01*
X152106000Y-102910000D02*
X150876000Y-104140000D01*
X150876000Y-111506000D02*
X153670000Y-114300000D01*
X150876000Y-104140000D02*
X150876000Y-111506000D01*
X153670000Y-114300000D02*
X161290000Y-121920000D01*
X158750000Y-105410000D02*
X158750000Y-105918000D01*
%TD*%
%TO.N,GND*%
X180212679Y-111067204D02*
X180106962Y-110908987D01*
X179921013Y-110723038D01*
X179832000Y-110663562D01*
X179832000Y-108241425D01*
X179835686Y-108204000D01*
X179832000Y-108166574D01*
X179832000Y-106717422D01*
X179835686Y-106679999D01*
X179832000Y-106642574D01*
X179820974Y-106530622D01*
X179777402Y-106386985D01*
X179706645Y-106254608D01*
X179611422Y-106138578D01*
X179582352Y-106114721D01*
X179114114Y-105646484D01*
X179135000Y-105541486D01*
X179135000Y-105278514D01*
X179083696Y-105020595D01*
X178983061Y-104777641D01*
X178836962Y-104558987D01*
X178651013Y-104373038D01*
X178432359Y-104226939D01*
X178189405Y-104126304D01*
X177931486Y-104075000D01*
X177668514Y-104075000D01*
X177410595Y-104126304D01*
X177167641Y-104226939D01*
X176948987Y-104373038D01*
X176763038Y-104558987D01*
X176616939Y-104777641D01*
X176516304Y-105020595D01*
X176465000Y-105278514D01*
X176465000Y-105541486D01*
X176516304Y-105799405D01*
X176616939Y-106042359D01*
X176763038Y-106261013D01*
X176948987Y-106446962D01*
X177167641Y-106593061D01*
X177410595Y-106693696D01*
X177668514Y-106745000D01*
X177931486Y-106745000D01*
X178036484Y-106724114D01*
X178308001Y-106995632D01*
X178308000Y-107442000D01*
X177099630Y-107442000D01*
X175304114Y-105646484D01*
X175325000Y-105541486D01*
X175325000Y-105278514D01*
X175273696Y-105020595D01*
X175173061Y-104777641D01*
X175026962Y-104558987D01*
X174841013Y-104373038D01*
X174622359Y-104226939D01*
X174379405Y-104126304D01*
X174121486Y-104075000D01*
X173858514Y-104075000D01*
X173600595Y-104126304D01*
X173357641Y-104226939D01*
X173138987Y-104373038D01*
X172953038Y-104558987D01*
X172806939Y-104777641D01*
X172706304Y-105020595D01*
X172655000Y-105278514D01*
X172655000Y-105541486D01*
X172706304Y-105799405D01*
X172806939Y-106042359D01*
X172953038Y-106261013D01*
X173138987Y-106446962D01*
X173357641Y-106593061D01*
X173600595Y-106693696D01*
X173858514Y-106745000D01*
X174121486Y-106745000D01*
X174226484Y-106724114D01*
X176218716Y-108716346D01*
X176242578Y-108745422D01*
X176316219Y-108805857D01*
X176358607Y-108840645D01*
X176429364Y-108878465D01*
X176490985Y-108911402D01*
X176634622Y-108954974D01*
X176746574Y-108966000D01*
X176746577Y-108966000D01*
X176784000Y-108969686D01*
X176821423Y-108966000D01*
X178308001Y-108966000D01*
X178308000Y-110663562D01*
X178218987Y-110723038D01*
X178033038Y-110908987D01*
X177886939Y-111127641D01*
X177786304Y-111370595D01*
X177735000Y-111628514D01*
X177735000Y-111891486D01*
X177755886Y-111996484D01*
X176017649Y-113734721D01*
X175988579Y-113758578D01*
X175964722Y-113787648D01*
X175964721Y-113787649D01*
X175893355Y-113874608D01*
X175822599Y-114006985D01*
X175779027Y-114150622D01*
X175764314Y-114300000D01*
X175768001Y-114337433D01*
X175768000Y-117433928D01*
X175730000Y-117433928D01*
X175605518Y-117446188D01*
X175485820Y-117482498D01*
X175375506Y-117541463D01*
X175278815Y-117620815D01*
X175199463Y-117717506D01*
X175140498Y-117827820D01*
X175104188Y-117947518D01*
X175091928Y-118072000D01*
X175091928Y-119672000D01*
X175104188Y-119796482D01*
X175140498Y-119916180D01*
X175199463Y-120026494D01*
X175278815Y-120123185D01*
X175375506Y-120202537D01*
X175485820Y-120261502D01*
X175605518Y-120297812D01*
X175730000Y-120310072D01*
X175737215Y-120310072D01*
X175716903Y-120379298D01*
X176530000Y-121192395D01*
X177343097Y-120379298D01*
X177322785Y-120310072D01*
X177330000Y-120310072D01*
X177454482Y-120297812D01*
X177574180Y-120261502D01*
X177684494Y-120202537D01*
X177781185Y-120123185D01*
X177860537Y-120026494D01*
X177919502Y-119916180D01*
X177955812Y-119796482D01*
X177968072Y-119672000D01*
X177968072Y-118072000D01*
X177955812Y-117947518D01*
X177919502Y-117827820D01*
X177860537Y-117717506D01*
X177781185Y-117620815D01*
X177684494Y-117541463D01*
X177574180Y-117482498D01*
X177454482Y-117446188D01*
X177330000Y-117433928D01*
X177292000Y-117433928D01*
X177292000Y-114615630D01*
X178833516Y-113074114D01*
X178938514Y-113095000D01*
X179201486Y-113095000D01*
X179459405Y-113043696D01*
X179702359Y-112943061D01*
X179921013Y-112796962D01*
X180106962Y-112611013D01*
X180212679Y-112452796D01*
X180212679Y-126364678D01*
X127635322Y-126364678D01*
X127635322Y-122885565D01*
X152884040Y-122885565D01*
X152951020Y-123125656D01*
X153200048Y-123242756D01*
X153467135Y-123309023D01*
X153742017Y-123321910D01*
X154014133Y-123280922D01*
X154273023Y-123187636D01*
X154388980Y-123125656D01*
X154455960Y-122885565D01*
X153670000Y-122099605D01*
X152884040Y-122885565D01*
X127635322Y-122885565D01*
X127635322Y-121992017D01*
X152268090Y-121992017D01*
X152309078Y-122264133D01*
X152402364Y-122523023D01*
X152464344Y-122638980D01*
X152704435Y-122705960D01*
X153490395Y-121920000D01*
X152704435Y-121134040D01*
X152464344Y-121201020D01*
X152347244Y-121450048D01*
X152280977Y-121717135D01*
X152268090Y-121992017D01*
X127635322Y-121992017D01*
X127635322Y-120954435D01*
X152884040Y-120954435D01*
X153670000Y-121740395D01*
X154455960Y-120954435D01*
X154388980Y-120714344D01*
X154139952Y-120597244D01*
X153872865Y-120530977D01*
X153597983Y-120518090D01*
X153325867Y-120559078D01*
X153066977Y-120652364D01*
X152951020Y-120714344D01*
X152884040Y-120954435D01*
X127635322Y-120954435D01*
X127635322Y-119195000D01*
X136706928Y-119195000D01*
X136719188Y-119319482D01*
X136755498Y-119439180D01*
X136814463Y-119549494D01*
X136893815Y-119646185D01*
X136990506Y-119725537D01*
X137100820Y-119784502D01*
X137220518Y-119820812D01*
X137345000Y-119833072D01*
X138144250Y-119830000D01*
X138303000Y-119671250D01*
X138303000Y-118237000D01*
X138557000Y-118237000D01*
X138557000Y-119671250D01*
X138715750Y-119830000D01*
X139515000Y-119833072D01*
X139639482Y-119820812D01*
X139759180Y-119784502D01*
X139869494Y-119725537D01*
X139966185Y-119646185D01*
X140045537Y-119549494D01*
X140104502Y-119439180D01*
X140140812Y-119319482D01*
X140153072Y-119195000D01*
X140150000Y-118395750D01*
X139991250Y-118237000D01*
X138557000Y-118237000D01*
X138303000Y-118237000D01*
X136868750Y-118237000D01*
X136710000Y-118395750D01*
X136706928Y-119195000D01*
X127635322Y-119195000D01*
X127635322Y-117025000D01*
X136706928Y-117025000D01*
X136710000Y-117824250D01*
X136868750Y-117983000D01*
X138303000Y-117983000D01*
X138303000Y-116548750D01*
X138557000Y-116548750D01*
X138557000Y-117983000D01*
X139991250Y-117983000D01*
X140150000Y-117824250D01*
X140153072Y-117025000D01*
X140140812Y-116900518D01*
X140104502Y-116780820D01*
X140045537Y-116670506D01*
X139966185Y-116573815D01*
X139869494Y-116494463D01*
X139759180Y-116435498D01*
X139639482Y-116399188D01*
X139515000Y-116386928D01*
X138715750Y-116390000D01*
X138557000Y-116548750D01*
X138303000Y-116548750D01*
X138144250Y-116390000D01*
X137345000Y-116386928D01*
X137220518Y-116399188D01*
X137100820Y-116435498D01*
X136990506Y-116494463D01*
X136893815Y-116573815D01*
X136814463Y-116670506D01*
X136755498Y-116780820D01*
X136719188Y-116900518D01*
X136706928Y-117025000D01*
X127635322Y-117025000D01*
X127635322Y-97924344D01*
X136545000Y-97924344D01*
X136545000Y-98295656D01*
X136617439Y-98659834D01*
X136759534Y-99002882D01*
X136965825Y-99311618D01*
X137228382Y-99574175D01*
X137537118Y-99780466D01*
X137880166Y-99922561D01*
X138244344Y-99995000D01*
X138615656Y-99995000D01*
X138979834Y-99922561D01*
X139322882Y-99780466D01*
X139631618Y-99574175D01*
X139894175Y-99311618D01*
X140008847Y-99140000D01*
X150963160Y-99140000D01*
X152085000Y-100261841D01*
X152085000Y-100566109D01*
X152145911Y-100872327D01*
X152265391Y-101160779D01*
X152438850Y-101420379D01*
X152659621Y-101641150D01*
X152687832Y-101660000D01*
X152659621Y-101678850D01*
X152438850Y-101899621D01*
X152272889Y-102148000D01*
X152143423Y-102148000D01*
X152106000Y-102144314D01*
X152068577Y-102148000D01*
X152068574Y-102148000D01*
X151956622Y-102159026D01*
X151812985Y-102202598D01*
X151751364Y-102235535D01*
X151680607Y-102273355D01*
X151638219Y-102308143D01*
X151564578Y-102368578D01*
X151540716Y-102397654D01*
X150363654Y-103574716D01*
X150334578Y-103598578D01*
X150283532Y-103660779D01*
X150239355Y-103714608D01*
X150215702Y-103758860D01*
X150168598Y-103846986D01*
X150125026Y-103990623D01*
X150117484Y-104067201D01*
X150110314Y-104140000D01*
X150114000Y-104177423D01*
X150114001Y-111468567D01*
X150110314Y-111506000D01*
X150125027Y-111655378D01*
X150168599Y-111799015D01*
X150239355Y-111931392D01*
X150281298Y-111982499D01*
X150334579Y-112047422D01*
X150363649Y-112071279D01*
X152303159Y-114010789D01*
X152273000Y-114162408D01*
X152273000Y-114437592D01*
X152326686Y-114707490D01*
X152431995Y-114961727D01*
X152584880Y-115190535D01*
X152779465Y-115385120D01*
X153008273Y-115538005D01*
X153262510Y-115643314D01*
X153532408Y-115697000D01*
X153807592Y-115697000D01*
X153959211Y-115666841D01*
X158815369Y-120523000D01*
X158612408Y-120523000D01*
X158342510Y-120576686D01*
X158088273Y-120681995D01*
X157859465Y-120834880D01*
X157664880Y-121029465D01*
X157511995Y-121258273D01*
X157480000Y-121335515D01*
X157448005Y-121258273D01*
X157295120Y-121029465D01*
X157100535Y-120834880D01*
X156871727Y-120681995D01*
X156617490Y-120576686D01*
X156347592Y-120523000D01*
X156072408Y-120523000D01*
X155802510Y-120576686D01*
X155548273Y-120681995D01*
X155319465Y-120834880D01*
X155124880Y-121029465D01*
X154971995Y-121258273D01*
X154942308Y-121329943D01*
X154937636Y-121316977D01*
X154875656Y-121201020D01*
X154635565Y-121134040D01*
X153849605Y-121920000D01*
X154635565Y-122705960D01*
X154875656Y-122638980D01*
X154939485Y-122503240D01*
X154971995Y-122581727D01*
X155124880Y-122810535D01*
X155319465Y-123005120D01*
X155548273Y-123158005D01*
X155802510Y-123263314D01*
X156072408Y-123317000D01*
X156347592Y-123317000D01*
X156617490Y-123263314D01*
X156871727Y-123158005D01*
X157100535Y-123005120D01*
X157295120Y-122810535D01*
X157448005Y-122581727D01*
X157480000Y-122504485D01*
X157511995Y-122581727D01*
X157664880Y-122810535D01*
X157859465Y-123005120D01*
X158088273Y-123158005D01*
X158342510Y-123263314D01*
X158612408Y-123317000D01*
X158887592Y-123317000D01*
X159157490Y-123263314D01*
X159411727Y-123158005D01*
X159640535Y-123005120D01*
X159835120Y-122810535D01*
X159988005Y-122581727D01*
X160020000Y-122504485D01*
X160051995Y-122581727D01*
X160204880Y-122810535D01*
X160399465Y-123005120D01*
X160628273Y-123158005D01*
X160882510Y-123263314D01*
X161152408Y-123317000D01*
X161427592Y-123317000D01*
X161697490Y-123263314D01*
X161951727Y-123158005D01*
X162180535Y-123005120D01*
X162375120Y-122810535D01*
X162528005Y-122581727D01*
X162617900Y-122364702D01*
X175716903Y-122364702D01*
X175788486Y-122608671D01*
X176043996Y-122729571D01*
X176318184Y-122798300D01*
X176600512Y-122812217D01*
X176880130Y-122770787D01*
X177146292Y-122675603D01*
X177271514Y-122608671D01*
X177343097Y-122364702D01*
X176530000Y-121551605D01*
X175716903Y-122364702D01*
X162617900Y-122364702D01*
X162633314Y-122327490D01*
X162687000Y-122057592D01*
X162687000Y-121864702D01*
X166826903Y-121864702D01*
X166898486Y-122108671D01*
X167153996Y-122229571D01*
X167428184Y-122298300D01*
X167710512Y-122312217D01*
X167990130Y-122270787D01*
X168256292Y-122175603D01*
X168381514Y-122108671D01*
X168453097Y-121864702D01*
X167640000Y-121051605D01*
X166826903Y-121864702D01*
X162687000Y-121864702D01*
X162687000Y-121782408D01*
X162633314Y-121512510D01*
X162528005Y-121258273D01*
X162375120Y-121029465D01*
X162180535Y-120834880D01*
X161951727Y-120681995D01*
X161697490Y-120576686D01*
X161427592Y-120523000D01*
X161152408Y-120523000D01*
X161000790Y-120553159D01*
X156144630Y-115697000D01*
X156347592Y-115697000D01*
X156617490Y-115643314D01*
X156871727Y-115538005D01*
X157100535Y-115385120D01*
X157295120Y-115190535D01*
X157448005Y-114961727D01*
X157480000Y-114884485D01*
X157511995Y-114961727D01*
X157664880Y-115190535D01*
X157859465Y-115385120D01*
X157988001Y-115471005D01*
X157988001Y-116548567D01*
X157984314Y-116586000D01*
X157999027Y-116735378D01*
X158042599Y-116879015D01*
X158113355Y-117011392D01*
X158184721Y-117098351D01*
X158208579Y-117127422D01*
X158237649Y-117151279D01*
X160470721Y-119384352D01*
X160494578Y-119413422D01*
X160610608Y-119508645D01*
X160742985Y-119579402D01*
X160886622Y-119622974D01*
X160998574Y-119634000D01*
X160998576Y-119634000D01*
X161035999Y-119637686D01*
X161073422Y-119634000D01*
X166201928Y-119634000D01*
X166201928Y-119672000D01*
X166214188Y-119796482D01*
X166250498Y-119916180D01*
X166309463Y-120026494D01*
X166388815Y-120123185D01*
X166401758Y-120133807D01*
X166282429Y-120385996D01*
X166213700Y-120660184D01*
X166199783Y-120942512D01*
X166241213Y-121222130D01*
X166336397Y-121488292D01*
X166403329Y-121613514D01*
X166647298Y-121685097D01*
X167460395Y-120872000D01*
X167446253Y-120857858D01*
X167625858Y-120678253D01*
X167640000Y-120692395D01*
X167654143Y-120678253D01*
X167833748Y-120857858D01*
X167819605Y-120872000D01*
X168632702Y-121685097D01*
X168876671Y-121613514D01*
X168957584Y-121442512D01*
X175089783Y-121442512D01*
X175131213Y-121722130D01*
X175226397Y-121988292D01*
X175293329Y-122113514D01*
X175537298Y-122185097D01*
X176350395Y-121372000D01*
X176709605Y-121372000D01*
X177522702Y-122185097D01*
X177766671Y-122113514D01*
X177887571Y-121858004D01*
X177956300Y-121583816D01*
X177970217Y-121301488D01*
X177928787Y-121021870D01*
X177833603Y-120755708D01*
X177766671Y-120630486D01*
X177522702Y-120558903D01*
X176709605Y-121372000D01*
X176350395Y-121372000D01*
X175537298Y-120558903D01*
X175293329Y-120630486D01*
X175172429Y-120885996D01*
X175103700Y-121160184D01*
X175089783Y-121442512D01*
X168957584Y-121442512D01*
X168997571Y-121358004D01*
X169066300Y-121083816D01*
X169080217Y-120801488D01*
X169038787Y-120521870D01*
X168943603Y-120255708D01*
X168878384Y-120133691D01*
X168891185Y-120123185D01*
X168970537Y-120026494D01*
X169029502Y-119916180D01*
X169065812Y-119796482D01*
X169078072Y-119672000D01*
X169078072Y-118072000D01*
X169065812Y-117947518D01*
X169029502Y-117827820D01*
X168970537Y-117717506D01*
X168891185Y-117620815D01*
X168794494Y-117541463D01*
X168684180Y-117482498D01*
X168564482Y-117446188D01*
X168440000Y-117433928D01*
X166840000Y-117433928D01*
X166715518Y-117446188D01*
X166595820Y-117482498D01*
X166485506Y-117541463D01*
X166388815Y-117620815D01*
X166309463Y-117717506D01*
X166250498Y-117827820D01*
X166214188Y-117947518D01*
X166201928Y-118072000D01*
X166201928Y-118110000D01*
X161351631Y-118110000D01*
X159512000Y-116270370D01*
X159512000Y-115471005D01*
X159640535Y-115385120D01*
X159835120Y-115190535D01*
X159988005Y-114961727D01*
X160020000Y-114884485D01*
X160051995Y-114961727D01*
X160204880Y-115190535D01*
X160399465Y-115385120D01*
X160628273Y-115538005D01*
X160882510Y-115643314D01*
X161152408Y-115697000D01*
X161427592Y-115697000D01*
X161697490Y-115643314D01*
X161951727Y-115538005D01*
X162180535Y-115385120D01*
X162375120Y-115190535D01*
X162528005Y-114961727D01*
X162633314Y-114707490D01*
X162687000Y-114437592D01*
X162687000Y-114162408D01*
X162633314Y-113892510D01*
X162528005Y-113638273D01*
X162455660Y-113530000D01*
X164981928Y-113530000D01*
X164994188Y-113654482D01*
X165030498Y-113774180D01*
X165089463Y-113884494D01*
X165168815Y-113981185D01*
X165265506Y-114060537D01*
X165375820Y-114119502D01*
X165495518Y-114155812D01*
X165620000Y-114168072D01*
X166084250Y-114165000D01*
X166243000Y-114006250D01*
X166243000Y-113157000D01*
X166497000Y-113157000D01*
X166497000Y-114006250D01*
X166655750Y-114165000D01*
X167120000Y-114168072D01*
X167244482Y-114155812D01*
X167364180Y-114119502D01*
X167474494Y-114060537D01*
X167571185Y-113981185D01*
X167650537Y-113884494D01*
X167709502Y-113774180D01*
X167745812Y-113654482D01*
X167758072Y-113530000D01*
X167755000Y-113315750D01*
X167596250Y-113157000D01*
X166497000Y-113157000D01*
X166243000Y-113157000D01*
X165143750Y-113157000D01*
X164985000Y-113315750D01*
X164981928Y-113530000D01*
X162455660Y-113530000D01*
X162375120Y-113409465D01*
X162180535Y-113214880D01*
X161951727Y-113061995D01*
X161697490Y-112956686D01*
X161427592Y-112903000D01*
X161152408Y-112903000D01*
X160882510Y-112956686D01*
X160628273Y-113061995D01*
X160399465Y-113214880D01*
X160204880Y-113409465D01*
X160051995Y-113638273D01*
X160020000Y-113715515D01*
X159988005Y-113638273D01*
X159835120Y-113409465D01*
X159640535Y-113214880D01*
X159411727Y-113061995D01*
X159157490Y-112956686D01*
X158887592Y-112903000D01*
X158612408Y-112903000D01*
X158342510Y-112956686D01*
X158088273Y-113061995D01*
X157859465Y-113214880D01*
X157664880Y-113409465D01*
X157511995Y-113638273D01*
X157480000Y-113715515D01*
X157448005Y-113638273D01*
X157295120Y-113409465D01*
X157100535Y-113214880D01*
X156871727Y-113061995D01*
X156617490Y-112956686D01*
X156347592Y-112903000D01*
X156072408Y-112903000D01*
X155802510Y-112956686D01*
X155548273Y-113061995D01*
X155319465Y-113214880D01*
X155124880Y-113409465D01*
X154971995Y-113638273D01*
X154940000Y-113715515D01*
X154908005Y-113638273D01*
X154755120Y-113409465D01*
X154560535Y-113214880D01*
X154331727Y-113061995D01*
X154077490Y-112956686D01*
X153807592Y-112903000D01*
X153532408Y-112903000D01*
X153380789Y-112933159D01*
X151638000Y-111190370D01*
X151638000Y-104455630D01*
X152332466Y-103761164D01*
X152424021Y-103898186D01*
X152365506Y-103929463D01*
X152268815Y-104008815D01*
X152189463Y-104105506D01*
X152130498Y-104215820D01*
X152094188Y-104335518D01*
X152081928Y-104460000D01*
X152081928Y-106360000D01*
X152094188Y-106484482D01*
X152130498Y-106604180D01*
X152189463Y-106714494D01*
X152268815Y-106811185D01*
X152365506Y-106890537D01*
X152475820Y-106949502D01*
X152595518Y-106985812D01*
X152720000Y-106998072D01*
X154620000Y-106998072D01*
X154744482Y-106985812D01*
X154864180Y-106949502D01*
X154974494Y-106890537D01*
X155071185Y-106811185D01*
X155150537Y-106714494D01*
X155209502Y-106604180D01*
X155245812Y-106484482D01*
X155258072Y-106360000D01*
X155258072Y-104460000D01*
X155245812Y-104335518D01*
X155209502Y-104215820D01*
X155150537Y-104105506D01*
X155071185Y-104008815D01*
X154974494Y-103929463D01*
X154968015Y-103926000D01*
X157734001Y-103926000D01*
X157734000Y-104538025D01*
X157713038Y-104558987D01*
X157566939Y-104777641D01*
X157466304Y-105020595D01*
X157415000Y-105278514D01*
X157415000Y-105541486D01*
X157466304Y-105799405D01*
X157566939Y-106042359D01*
X157713038Y-106261013D01*
X157898987Y-106446962D01*
X158117641Y-106593061D01*
X158360595Y-106693696D01*
X158618514Y-106745000D01*
X158881486Y-106745000D01*
X159139405Y-106693696D01*
X159382359Y-106593061D01*
X159601013Y-106446962D01*
X159786962Y-106261013D01*
X159933061Y-106042359D01*
X160033696Y-105799405D01*
X160085000Y-105541486D01*
X160085000Y-105278514D01*
X161225000Y-105278514D01*
X161225000Y-105541486D01*
X161276304Y-105799405D01*
X161376939Y-106042359D01*
X161523038Y-106261013D01*
X161708987Y-106446962D01*
X161927641Y-106593061D01*
X162170595Y-106693696D01*
X162428514Y-106745000D01*
X162691486Y-106745000D01*
X162949405Y-106693696D01*
X163192359Y-106593061D01*
X163411013Y-106446962D01*
X163596962Y-106261013D01*
X163743061Y-106042359D01*
X163843696Y-105799405D01*
X163895000Y-105541486D01*
X163895000Y-105278514D01*
X163843696Y-105020595D01*
X163743061Y-104777641D01*
X163596962Y-104558987D01*
X163411013Y-104373038D01*
X163192359Y-104226939D01*
X162949405Y-104126304D01*
X162691486Y-104075000D01*
X162428514Y-104075000D01*
X162170595Y-104126304D01*
X161927641Y-104226939D01*
X161708987Y-104373038D01*
X161523038Y-104558987D01*
X161376939Y-104777641D01*
X161276304Y-105020595D01*
X161225000Y-105278514D01*
X160085000Y-105278514D01*
X160033696Y-105020595D01*
X159933061Y-104777641D01*
X159786962Y-104558987D01*
X159766000Y-104538025D01*
X159766000Y-103926000D01*
X165354001Y-103926000D01*
X165354000Y-104538025D01*
X165333038Y-104558987D01*
X165186939Y-104777641D01*
X165086304Y-105020595D01*
X165035000Y-105278514D01*
X165035000Y-105541486D01*
X165086304Y-105799405D01*
X165186939Y-106042359D01*
X165333038Y-106261013D01*
X165518987Y-106446962D01*
X165737641Y-106593061D01*
X165980595Y-106693696D01*
X166030706Y-106703664D01*
X165857649Y-106876721D01*
X165828579Y-106900578D01*
X165804722Y-106929648D01*
X165804721Y-106929649D01*
X165733355Y-107016608D01*
X165662599Y-107148985D01*
X165619027Y-107292622D01*
X165604314Y-107442000D01*
X165608001Y-107479433D01*
X165608000Y-109476707D01*
X165486377Y-109541716D01*
X165313551Y-109683551D01*
X165171716Y-109856377D01*
X165066324Y-110053553D01*
X165001423Y-110267501D01*
X164979509Y-110490000D01*
X165001423Y-110712499D01*
X165066324Y-110926447D01*
X165171716Y-111123623D01*
X165172846Y-111125000D01*
X165171716Y-111126377D01*
X165066324Y-111323553D01*
X165001423Y-111537501D01*
X164979509Y-111760000D01*
X165001423Y-111982499D01*
X165066324Y-112196447D01*
X165072297Y-112207621D01*
X165030498Y-112285820D01*
X164994188Y-112405518D01*
X164981928Y-112530000D01*
X164985000Y-112744250D01*
X165143750Y-112903000D01*
X166243000Y-112903000D01*
X166243000Y-112895000D01*
X166497000Y-112895000D01*
X166497000Y-112903000D01*
X167596250Y-112903000D01*
X167755000Y-112744250D01*
X167758072Y-112530000D01*
X167757284Y-112522000D01*
X170353562Y-112522000D01*
X170413038Y-112611013D01*
X170598987Y-112796962D01*
X170817641Y-112943061D01*
X171060595Y-113043696D01*
X171318514Y-113095000D01*
X171581486Y-113095000D01*
X171839405Y-113043696D01*
X172082359Y-112943061D01*
X172301013Y-112796962D01*
X172486962Y-112611013D01*
X172633061Y-112392359D01*
X172733696Y-112149405D01*
X172785000Y-111891486D01*
X172785000Y-111628514D01*
X172733696Y-111370595D01*
X172633061Y-111127641D01*
X172486962Y-110908987D01*
X172301013Y-110723038D01*
X172082359Y-110576939D01*
X171839405Y-110476304D01*
X171581486Y-110425000D01*
X171318514Y-110425000D01*
X171060595Y-110476304D01*
X170817641Y-110576939D01*
X170598987Y-110723038D01*
X170413038Y-110908987D01*
X170353562Y-110998000D01*
X167635430Y-110998000D01*
X167673676Y-110926447D01*
X167738577Y-110712499D01*
X167760491Y-110490000D01*
X167738577Y-110267501D01*
X167673676Y-110053553D01*
X167568284Y-109856377D01*
X167426449Y-109683551D01*
X167253623Y-109541716D01*
X167132000Y-109476708D01*
X167132000Y-107757630D01*
X168713279Y-106176351D01*
X168784645Y-106089393D01*
X168855401Y-105957016D01*
X168898973Y-105813379D01*
X168899572Y-105807295D01*
X168996939Y-106042359D01*
X169143038Y-106261013D01*
X169328987Y-106446962D01*
X169547641Y-106593061D01*
X169790595Y-106693696D01*
X170048514Y-106745000D01*
X170311486Y-106745000D01*
X170569405Y-106693696D01*
X170812359Y-106593061D01*
X171031013Y-106446962D01*
X171216962Y-106261013D01*
X171363061Y-106042359D01*
X171463696Y-105799405D01*
X171515000Y-105541486D01*
X171515000Y-105278514D01*
X171463696Y-105020595D01*
X171363061Y-104777641D01*
X171216962Y-104558987D01*
X171031013Y-104373038D01*
X170812359Y-104226939D01*
X170569405Y-104126304D01*
X170311486Y-104075000D01*
X170281841Y-104075000D01*
X168433712Y-102226872D01*
X168401896Y-102188104D01*
X168247190Y-102061140D01*
X168070687Y-101966798D01*
X167879171Y-101908702D01*
X167729902Y-101894000D01*
X167680000Y-101889085D01*
X167630098Y-101894000D01*
X166633902Y-101894000D01*
X166584000Y-101889085D01*
X166534098Y-101894000D01*
X159013902Y-101894000D01*
X158964000Y-101889085D01*
X158914098Y-101894000D01*
X154895529Y-101894000D01*
X154680379Y-101678850D01*
X154652168Y-101660000D01*
X154680379Y-101641150D01*
X154901150Y-101420379D01*
X155074609Y-101160779D01*
X155194089Y-100872327D01*
X155255000Y-100566109D01*
X155255000Y-100253891D01*
X155194089Y-99947673D01*
X155074609Y-99659221D01*
X154901150Y-99399621D01*
X154680379Y-99178850D01*
X154420779Y-99005391D01*
X154132327Y-98885911D01*
X153826109Y-98825000D01*
X153521841Y-98825000D01*
X152355355Y-97658514D01*
X157415000Y-97658514D01*
X157415000Y-97921486D01*
X157466304Y-98179405D01*
X157566939Y-98422359D01*
X157713038Y-98641013D01*
X157898987Y-98826962D01*
X158117641Y-98973061D01*
X158360595Y-99073696D01*
X158618514Y-99125000D01*
X158881486Y-99125000D01*
X159139405Y-99073696D01*
X159382359Y-98973061D01*
X159601013Y-98826962D01*
X159786962Y-98641013D01*
X159933061Y-98422359D01*
X160033696Y-98179405D01*
X160085000Y-97921486D01*
X160085000Y-97658514D01*
X161225000Y-97658514D01*
X161225000Y-97921486D01*
X161276304Y-98179405D01*
X161376939Y-98422359D01*
X161523038Y-98641013D01*
X161708987Y-98826962D01*
X161927641Y-98973061D01*
X162170595Y-99073696D01*
X162428514Y-99125000D01*
X162691486Y-99125000D01*
X162949405Y-99073696D01*
X163192359Y-98973061D01*
X163411013Y-98826962D01*
X163596962Y-98641013D01*
X163743061Y-98422359D01*
X163843696Y-98179405D01*
X163895000Y-97921486D01*
X163895000Y-97658514D01*
X165035000Y-97658514D01*
X165035000Y-97921486D01*
X165086304Y-98179405D01*
X165186939Y-98422359D01*
X165333038Y-98641013D01*
X165518987Y-98826962D01*
X165737641Y-98973061D01*
X165980595Y-99073696D01*
X166238514Y-99125000D01*
X166501486Y-99125000D01*
X166759405Y-99073696D01*
X167002359Y-98973061D01*
X167221013Y-98826962D01*
X167406962Y-98641013D01*
X167553061Y-98422359D01*
X167653696Y-98179405D01*
X167705000Y-97921486D01*
X167705000Y-97658514D01*
X168845000Y-97658514D01*
X168845000Y-97921486D01*
X168896304Y-98179405D01*
X168996939Y-98422359D01*
X169143038Y-98641013D01*
X169328987Y-98826962D01*
X169547641Y-98973061D01*
X169790595Y-99073696D01*
X170048514Y-99125000D01*
X170311486Y-99125000D01*
X170569405Y-99073696D01*
X170812359Y-98973061D01*
X171031013Y-98826962D01*
X171216962Y-98641013D01*
X171363061Y-98422359D01*
X171463696Y-98179405D01*
X171515000Y-97921486D01*
X171515000Y-97658514D01*
X172655000Y-97658514D01*
X172655000Y-97921486D01*
X172706304Y-98179405D01*
X172806939Y-98422359D01*
X172953038Y-98641013D01*
X173138987Y-98826962D01*
X173357641Y-98973061D01*
X173600595Y-99073696D01*
X173858514Y-99125000D01*
X174121486Y-99125000D01*
X174379405Y-99073696D01*
X174622359Y-98973061D01*
X174841013Y-98826962D01*
X175026962Y-98641013D01*
X175173061Y-98422359D01*
X175273696Y-98179405D01*
X175284850Y-98123330D01*
X176507278Y-98123330D01*
X176597147Y-98369123D01*
X176733241Y-98592660D01*
X176910330Y-98785351D01*
X177121608Y-98939792D01*
X177358956Y-99050047D01*
X177466671Y-99082716D01*
X177673000Y-98959374D01*
X177673000Y-97917000D01*
X177927000Y-97917000D01*
X177927000Y-98959374D01*
X178133329Y-99082716D01*
X178241044Y-99050047D01*
X178478392Y-98939792D01*
X178689670Y-98785351D01*
X178866759Y-98592660D01*
X179002853Y-98369123D01*
X179092722Y-98123330D01*
X178970201Y-97917000D01*
X177927000Y-97917000D01*
X177673000Y-97917000D01*
X176629799Y-97917000D01*
X176507278Y-98123330D01*
X175284850Y-98123330D01*
X175325000Y-97921486D01*
X175325000Y-97658514D01*
X175284851Y-97456670D01*
X176507278Y-97456670D01*
X176629799Y-97663000D01*
X177673000Y-97663000D01*
X177673000Y-96620626D01*
X177927000Y-96620626D01*
X177927000Y-97663000D01*
X178970201Y-97663000D01*
X179092722Y-97456670D01*
X179002853Y-97210877D01*
X178866759Y-96987340D01*
X178689670Y-96794649D01*
X178478392Y-96640208D01*
X178241044Y-96529953D01*
X178133329Y-96497284D01*
X177927000Y-96620626D01*
X177673000Y-96620626D01*
X177466671Y-96497284D01*
X177358956Y-96529953D01*
X177121608Y-96640208D01*
X176910330Y-96794649D01*
X176733241Y-96987340D01*
X176597147Y-97210877D01*
X176507278Y-97456670D01*
X175284851Y-97456670D01*
X175273696Y-97400595D01*
X175173061Y-97157641D01*
X175026962Y-96938987D01*
X174841013Y-96753038D01*
X174622359Y-96606939D01*
X174379405Y-96506304D01*
X174121486Y-96455000D01*
X173858514Y-96455000D01*
X173600595Y-96506304D01*
X173357641Y-96606939D01*
X173138987Y-96753038D01*
X172953038Y-96938987D01*
X172806939Y-97157641D01*
X172706304Y-97400595D01*
X172655000Y-97658514D01*
X171515000Y-97658514D01*
X171463696Y-97400595D01*
X171363061Y-97157641D01*
X171216962Y-96938987D01*
X171031013Y-96753038D01*
X170812359Y-96606939D01*
X170569405Y-96506304D01*
X170311486Y-96455000D01*
X170048514Y-96455000D01*
X169790595Y-96506304D01*
X169547641Y-96606939D01*
X169328987Y-96753038D01*
X169143038Y-96938987D01*
X168996939Y-97157641D01*
X168896304Y-97400595D01*
X168845000Y-97658514D01*
X167705000Y-97658514D01*
X167653696Y-97400595D01*
X167553061Y-97157641D01*
X167406962Y-96938987D01*
X167221013Y-96753038D01*
X167002359Y-96606939D01*
X166759405Y-96506304D01*
X166501486Y-96455000D01*
X166238514Y-96455000D01*
X165980595Y-96506304D01*
X165737641Y-96606939D01*
X165518987Y-96753038D01*
X165333038Y-96938987D01*
X165186939Y-97157641D01*
X165086304Y-97400595D01*
X165035000Y-97658514D01*
X163895000Y-97658514D01*
X163843696Y-97400595D01*
X163743061Y-97157641D01*
X163596962Y-96938987D01*
X163411013Y-96753038D01*
X163192359Y-96606939D01*
X162949405Y-96506304D01*
X162691486Y-96455000D01*
X162428514Y-96455000D01*
X162170595Y-96506304D01*
X161927641Y-96606939D01*
X161708987Y-96753038D01*
X161523038Y-96938987D01*
X161376939Y-97157641D01*
X161276304Y-97400595D01*
X161225000Y-97658514D01*
X160085000Y-97658514D01*
X160033696Y-97400595D01*
X159933061Y-97157641D01*
X159786962Y-96938987D01*
X159601013Y-96753038D01*
X159382359Y-96606939D01*
X159139405Y-96506304D01*
X158881486Y-96455000D01*
X158618514Y-96455000D01*
X158360595Y-96506304D01*
X158117641Y-96606939D01*
X157898987Y-96753038D01*
X157713038Y-96938987D01*
X157566939Y-97157641D01*
X157466304Y-97400595D01*
X157415000Y-97658514D01*
X152355355Y-97658514D01*
X152137712Y-97440872D01*
X152105896Y-97402104D01*
X151951190Y-97275140D01*
X151774687Y-97180798D01*
X151583171Y-97122702D01*
X151433902Y-97108000D01*
X151384000Y-97103085D01*
X151334098Y-97108000D01*
X140027556Y-97108000D01*
X139894175Y-96908382D01*
X139631618Y-96645825D01*
X139322882Y-96439534D01*
X138979834Y-96297439D01*
X138615656Y-96225000D01*
X138244344Y-96225000D01*
X137880166Y-96297439D01*
X137537118Y-96439534D01*
X137228382Y-96645825D01*
X136965825Y-96908382D01*
X136759534Y-97217118D01*
X136617439Y-97560166D01*
X136545000Y-97924344D01*
X127635322Y-97924344D01*
X127635322Y-70474000D01*
X147051928Y-70474000D01*
X147051928Y-72274000D01*
X147064188Y-72398482D01*
X147100498Y-72518180D01*
X147159463Y-72628494D01*
X147238815Y-72725185D01*
X147335506Y-72804537D01*
X147445820Y-72863502D01*
X147565518Y-72899812D01*
X147690000Y-72912072D01*
X149490000Y-72912072D01*
X149614482Y-72899812D01*
X149734180Y-72863502D01*
X149844494Y-72804537D01*
X149941185Y-72725185D01*
X150020537Y-72628494D01*
X150079502Y-72518180D01*
X150115812Y-72398482D01*
X150128072Y-72274000D01*
X150128072Y-70474000D01*
X155941928Y-70474000D01*
X155941928Y-72274000D01*
X155954188Y-72398482D01*
X155990498Y-72518180D01*
X156049463Y-72628494D01*
X156128815Y-72725185D01*
X156225506Y-72804537D01*
X156335820Y-72863502D01*
X156455518Y-72899812D01*
X156580000Y-72912072D01*
X158380000Y-72912072D01*
X158504482Y-72899812D01*
X158624180Y-72863502D01*
X158734494Y-72804537D01*
X158831185Y-72725185D01*
X158910537Y-72628494D01*
X158969502Y-72518180D01*
X159005812Y-72398482D01*
X159018072Y-72274000D01*
X159018072Y-70474000D01*
X159005812Y-70349518D01*
X158969502Y-70229820D01*
X158910537Y-70119506D01*
X158831185Y-70022815D01*
X158734494Y-69943463D01*
X158624180Y-69884498D01*
X158605873Y-69878944D01*
X158672312Y-69812505D01*
X158840299Y-69561095D01*
X158956011Y-69281743D01*
X159015000Y-68985184D01*
X159015000Y-68682816D01*
X158956011Y-68386257D01*
X158840299Y-68106905D01*
X158672312Y-67855495D01*
X158458505Y-67641688D01*
X158207095Y-67473701D01*
X157927743Y-67357989D01*
X157631184Y-67299000D01*
X157328816Y-67299000D01*
X157032257Y-67357989D01*
X156752905Y-67473701D01*
X156501495Y-67641688D01*
X156287688Y-67855495D01*
X156119701Y-68106905D01*
X156003989Y-68386257D01*
X155945000Y-68682816D01*
X155945000Y-68985184D01*
X156003989Y-69281743D01*
X156119701Y-69561095D01*
X156287688Y-69812505D01*
X156354127Y-69878944D01*
X156335820Y-69884498D01*
X156225506Y-69943463D01*
X156128815Y-70022815D01*
X156049463Y-70119506D01*
X155990498Y-70229820D01*
X155954188Y-70349518D01*
X155941928Y-70474000D01*
X150128072Y-70474000D01*
X150115812Y-70349518D01*
X150079502Y-70229820D01*
X150020537Y-70119506D01*
X149941185Y-70022815D01*
X149844494Y-69943463D01*
X149734180Y-69884498D01*
X149715873Y-69878944D01*
X149782312Y-69812505D01*
X149950299Y-69561095D01*
X150066011Y-69281743D01*
X150125000Y-68985184D01*
X150125000Y-68682816D01*
X150066011Y-68386257D01*
X149950299Y-68106905D01*
X149782312Y-67855495D01*
X149568505Y-67641688D01*
X149317095Y-67473701D01*
X149037743Y-67357989D01*
X148741184Y-67299000D01*
X148438816Y-67299000D01*
X148142257Y-67357989D01*
X147862905Y-67473701D01*
X147611495Y-67641688D01*
X147397688Y-67855495D01*
X147229701Y-68106905D01*
X147113989Y-68386257D01*
X147055000Y-68682816D01*
X147055000Y-68985184D01*
X147113989Y-69281743D01*
X147229701Y-69561095D01*
X147397688Y-69812505D01*
X147464127Y-69878944D01*
X147445820Y-69884498D01*
X147335506Y-69943463D01*
X147238815Y-70022815D01*
X147159463Y-70119506D01*
X147100498Y-70229820D01*
X147064188Y-70349518D01*
X147051928Y-70474000D01*
X127635322Y-70474000D01*
X127635322Y-45802717D01*
X146306339Y-45802717D01*
X146306741Y-45860266D01*
X146306339Y-45917881D01*
X146307204Y-45926709D01*
X146346067Y-46296463D01*
X146357643Y-46352854D01*
X146368436Y-46409432D01*
X146371000Y-46417923D01*
X146480942Y-46773087D01*
X146503239Y-46826129D01*
X146524826Y-46879559D01*
X146528991Y-46887391D01*
X146705822Y-47214436D01*
X146738018Y-47262168D01*
X146769553Y-47310358D01*
X146775159Y-47317232D01*
X147012148Y-47603702D01*
X147053005Y-47644274D01*
X147093295Y-47685417D01*
X147100129Y-47691071D01*
X147388246Y-47926054D01*
X147436208Y-47957920D01*
X147483721Y-47990452D01*
X147491524Y-47994671D01*
X147819796Y-48169216D01*
X147872988Y-48191140D01*
X147925958Y-48213843D01*
X147934432Y-48216466D01*
X148290355Y-48323926D01*
X148346816Y-48335105D01*
X148403166Y-48347083D01*
X148411988Y-48348010D01*
X148782004Y-48384290D01*
X148782007Y-48384290D01*
X148812790Y-48387322D01*
X159035210Y-48387322D01*
X159067882Y-48384104D01*
X159092595Y-48384104D01*
X159101416Y-48383177D01*
X159470890Y-48341734D01*
X159527228Y-48329759D01*
X159583700Y-48318577D01*
X159592174Y-48315954D01*
X159946561Y-48203536D01*
X159999469Y-48180860D01*
X160052725Y-48158909D01*
X160060528Y-48154690D01*
X160386331Y-47975578D01*
X160433848Y-47943042D01*
X160481804Y-47911180D01*
X160488639Y-47905526D01*
X160773447Y-47666544D01*
X160813739Y-47625399D01*
X160854594Y-47584828D01*
X160860195Y-47577960D01*
X160860200Y-47577955D01*
X160860204Y-47577950D01*
X161093166Y-47288204D01*
X161124697Y-47240019D01*
X161156896Y-47192282D01*
X161161061Y-47184450D01*
X161333309Y-46854968D01*
X161354857Y-46801636D01*
X161377195Y-46748495D01*
X161379758Y-46740003D01*
X161484730Y-46383338D01*
X161495518Y-46326784D01*
X161507098Y-46270371D01*
X161507964Y-46261543D01*
X161541661Y-45891283D01*
X161541259Y-45833734D01*
X161541661Y-45776119D01*
X161540796Y-45767292D01*
X161501933Y-45397537D01*
X161490352Y-45341120D01*
X161479564Y-45284568D01*
X161477000Y-45276076D01*
X161367058Y-44920913D01*
X161344756Y-44867859D01*
X161323174Y-44814441D01*
X161319009Y-44806609D01*
X161319009Y-44806608D01*
X161319006Y-44806604D01*
X161142177Y-44479564D01*
X161109999Y-44431858D01*
X161078447Y-44383642D01*
X161072840Y-44376768D01*
X160835852Y-44090298D01*
X160794995Y-44049726D01*
X160754705Y-44008583D01*
X160747871Y-44002929D01*
X160459754Y-43767946D01*
X160411792Y-43736080D01*
X160364279Y-43703548D01*
X160356476Y-43699329D01*
X160028204Y-43524784D01*
X159974986Y-43502849D01*
X159922041Y-43480157D01*
X159913568Y-43477534D01*
X159557645Y-43370074D01*
X159501201Y-43358898D01*
X159444833Y-43346917D01*
X159436012Y-43345990D01*
X159065996Y-43309710D01*
X159065993Y-43309710D01*
X159035210Y-43306678D01*
X148812790Y-43306678D01*
X148780118Y-43309896D01*
X148755405Y-43309896D01*
X148746584Y-43310823D01*
X148377110Y-43352266D01*
X148320780Y-43364240D01*
X148264299Y-43375423D01*
X148255826Y-43378046D01*
X147901439Y-43490464D01*
X147848512Y-43513149D01*
X147795274Y-43535092D01*
X147787472Y-43539310D01*
X147461669Y-43718422D01*
X147414167Y-43750948D01*
X147366196Y-43782820D01*
X147359361Y-43788474D01*
X147074553Y-44027456D01*
X147034261Y-44068601D01*
X146993406Y-44109172D01*
X146987799Y-44116046D01*
X146754834Y-44405797D01*
X146723314Y-44453964D01*
X146691104Y-44501718D01*
X146686939Y-44509550D01*
X146514690Y-44839032D01*
X146493109Y-44892446D01*
X146470806Y-44945505D01*
X146468242Y-44953996D01*
X146363270Y-45310662D01*
X146352488Y-45367185D01*
X146340901Y-45423629D01*
X146340036Y-45432457D01*
X146306339Y-45802717D01*
X127635322Y-45802717D01*
X127635322Y-42037322D01*
X180212678Y-42037322D01*
X180212679Y-111067204D01*
%TA.AperFunction,Conductor*%
D26*
G36*
X180212679Y-111067204D02*
G01*
X180106962Y-110908987D01*
X179921013Y-110723038D01*
X179832000Y-110663562D01*
X179832000Y-108241425D01*
X179835686Y-108204000D01*
X179832000Y-108166574D01*
X179832000Y-106717422D01*
X179835686Y-106679999D01*
X179832000Y-106642574D01*
X179820974Y-106530622D01*
X179777402Y-106386985D01*
X179706645Y-106254608D01*
X179611422Y-106138578D01*
X179582352Y-106114721D01*
X179114114Y-105646484D01*
X179135000Y-105541486D01*
X179135000Y-105278514D01*
X179083696Y-105020595D01*
X178983061Y-104777641D01*
X178836962Y-104558987D01*
X178651013Y-104373038D01*
X178432359Y-104226939D01*
X178189405Y-104126304D01*
X177931486Y-104075000D01*
X177668514Y-104075000D01*
X177410595Y-104126304D01*
X177167641Y-104226939D01*
X176948987Y-104373038D01*
X176763038Y-104558987D01*
X176616939Y-104777641D01*
X176516304Y-105020595D01*
X176465000Y-105278514D01*
X176465000Y-105541486D01*
X176516304Y-105799405D01*
X176616939Y-106042359D01*
X176763038Y-106261013D01*
X176948987Y-106446962D01*
X177167641Y-106593061D01*
X177410595Y-106693696D01*
X177668514Y-106745000D01*
X177931486Y-106745000D01*
X178036484Y-106724114D01*
X178308001Y-106995632D01*
X178308000Y-107442000D01*
X177099630Y-107442000D01*
X175304114Y-105646484D01*
X175325000Y-105541486D01*
X175325000Y-105278514D01*
X175273696Y-105020595D01*
X175173061Y-104777641D01*
X175026962Y-104558987D01*
X174841013Y-104373038D01*
X174622359Y-104226939D01*
X174379405Y-104126304D01*
X174121486Y-104075000D01*
X173858514Y-104075000D01*
X173600595Y-104126304D01*
X173357641Y-104226939D01*
X173138987Y-104373038D01*
X172953038Y-104558987D01*
X172806939Y-104777641D01*
X172706304Y-105020595D01*
X172655000Y-105278514D01*
X172655000Y-105541486D01*
X172706304Y-105799405D01*
X172806939Y-106042359D01*
X172953038Y-106261013D01*
X173138987Y-106446962D01*
X173357641Y-106593061D01*
X173600595Y-106693696D01*
X173858514Y-106745000D01*
X174121486Y-106745000D01*
X174226484Y-106724114D01*
X176218716Y-108716346D01*
X176242578Y-108745422D01*
X176316219Y-108805857D01*
X176358607Y-108840645D01*
X176429364Y-108878465D01*
X176490985Y-108911402D01*
X176634622Y-108954974D01*
X176746574Y-108966000D01*
X176746577Y-108966000D01*
X176784000Y-108969686D01*
X176821423Y-108966000D01*
X178308001Y-108966000D01*
X178308000Y-110663562D01*
X178218987Y-110723038D01*
X178033038Y-110908987D01*
X177886939Y-111127641D01*
X177786304Y-111370595D01*
X177735000Y-111628514D01*
X177735000Y-111891486D01*
X177755886Y-111996484D01*
X176017649Y-113734721D01*
X175988579Y-113758578D01*
X175964722Y-113787648D01*
X175964721Y-113787649D01*
X175893355Y-113874608D01*
X175822599Y-114006985D01*
X175779027Y-114150622D01*
X175764314Y-114300000D01*
X175768001Y-114337433D01*
X175768000Y-117433928D01*
X175730000Y-117433928D01*
X175605518Y-117446188D01*
X175485820Y-117482498D01*
X175375506Y-117541463D01*
X175278815Y-117620815D01*
X175199463Y-117717506D01*
X175140498Y-117827820D01*
X175104188Y-117947518D01*
X175091928Y-118072000D01*
X175091928Y-119672000D01*
X175104188Y-119796482D01*
X175140498Y-119916180D01*
X175199463Y-120026494D01*
X175278815Y-120123185D01*
X175375506Y-120202537D01*
X175485820Y-120261502D01*
X175605518Y-120297812D01*
X175730000Y-120310072D01*
X175737215Y-120310072D01*
X175716903Y-120379298D01*
X176530000Y-121192395D01*
X177343097Y-120379298D01*
X177322785Y-120310072D01*
X177330000Y-120310072D01*
X177454482Y-120297812D01*
X177574180Y-120261502D01*
X177684494Y-120202537D01*
X177781185Y-120123185D01*
X177860537Y-120026494D01*
X177919502Y-119916180D01*
X177955812Y-119796482D01*
X177968072Y-119672000D01*
X177968072Y-118072000D01*
X177955812Y-117947518D01*
X177919502Y-117827820D01*
X177860537Y-117717506D01*
X177781185Y-117620815D01*
X177684494Y-117541463D01*
X177574180Y-117482498D01*
X177454482Y-117446188D01*
X177330000Y-117433928D01*
X177292000Y-117433928D01*
X177292000Y-114615630D01*
X178833516Y-113074114D01*
X178938514Y-113095000D01*
X179201486Y-113095000D01*
X179459405Y-113043696D01*
X179702359Y-112943061D01*
X179921013Y-112796962D01*
X180106962Y-112611013D01*
X180212679Y-112452796D01*
X180212679Y-126364678D01*
X127635322Y-126364678D01*
X127635322Y-122885565D01*
X152884040Y-122885565D01*
X152951020Y-123125656D01*
X153200048Y-123242756D01*
X153467135Y-123309023D01*
X153742017Y-123321910D01*
X154014133Y-123280922D01*
X154273023Y-123187636D01*
X154388980Y-123125656D01*
X154455960Y-122885565D01*
X153670000Y-122099605D01*
X152884040Y-122885565D01*
X127635322Y-122885565D01*
X127635322Y-121992017D01*
X152268090Y-121992017D01*
X152309078Y-122264133D01*
X152402364Y-122523023D01*
X152464344Y-122638980D01*
X152704435Y-122705960D01*
X153490395Y-121920000D01*
X152704435Y-121134040D01*
X152464344Y-121201020D01*
X152347244Y-121450048D01*
X152280977Y-121717135D01*
X152268090Y-121992017D01*
X127635322Y-121992017D01*
X127635322Y-120954435D01*
X152884040Y-120954435D01*
X153670000Y-121740395D01*
X154455960Y-120954435D01*
X154388980Y-120714344D01*
X154139952Y-120597244D01*
X153872865Y-120530977D01*
X153597983Y-120518090D01*
X153325867Y-120559078D01*
X153066977Y-120652364D01*
X152951020Y-120714344D01*
X152884040Y-120954435D01*
X127635322Y-120954435D01*
X127635322Y-119195000D01*
X136706928Y-119195000D01*
X136719188Y-119319482D01*
X136755498Y-119439180D01*
X136814463Y-119549494D01*
X136893815Y-119646185D01*
X136990506Y-119725537D01*
X137100820Y-119784502D01*
X137220518Y-119820812D01*
X137345000Y-119833072D01*
X138144250Y-119830000D01*
X138303000Y-119671250D01*
X138303000Y-118237000D01*
X138557000Y-118237000D01*
X138557000Y-119671250D01*
X138715750Y-119830000D01*
X139515000Y-119833072D01*
X139639482Y-119820812D01*
X139759180Y-119784502D01*
X139869494Y-119725537D01*
X139966185Y-119646185D01*
X140045537Y-119549494D01*
X140104502Y-119439180D01*
X140140812Y-119319482D01*
X140153072Y-119195000D01*
X140150000Y-118395750D01*
X139991250Y-118237000D01*
X138557000Y-118237000D01*
X138303000Y-118237000D01*
X136868750Y-118237000D01*
X136710000Y-118395750D01*
X136706928Y-119195000D01*
X127635322Y-119195000D01*
X127635322Y-117025000D01*
X136706928Y-117025000D01*
X136710000Y-117824250D01*
X136868750Y-117983000D01*
X138303000Y-117983000D01*
X138303000Y-116548750D01*
X138557000Y-116548750D01*
X138557000Y-117983000D01*
X139991250Y-117983000D01*
X140150000Y-117824250D01*
X140153072Y-117025000D01*
X140140812Y-116900518D01*
X140104502Y-116780820D01*
X140045537Y-116670506D01*
X139966185Y-116573815D01*
X139869494Y-116494463D01*
X139759180Y-116435498D01*
X139639482Y-116399188D01*
X139515000Y-116386928D01*
X138715750Y-116390000D01*
X138557000Y-116548750D01*
X138303000Y-116548750D01*
X138144250Y-116390000D01*
X137345000Y-116386928D01*
X137220518Y-116399188D01*
X137100820Y-116435498D01*
X136990506Y-116494463D01*
X136893815Y-116573815D01*
X136814463Y-116670506D01*
X136755498Y-116780820D01*
X136719188Y-116900518D01*
X136706928Y-117025000D01*
X127635322Y-117025000D01*
X127635322Y-97924344D01*
X136545000Y-97924344D01*
X136545000Y-98295656D01*
X136617439Y-98659834D01*
X136759534Y-99002882D01*
X136965825Y-99311618D01*
X137228382Y-99574175D01*
X137537118Y-99780466D01*
X137880166Y-99922561D01*
X138244344Y-99995000D01*
X138615656Y-99995000D01*
X138979834Y-99922561D01*
X139322882Y-99780466D01*
X139631618Y-99574175D01*
X139894175Y-99311618D01*
X140008847Y-99140000D01*
X150963160Y-99140000D01*
X152085000Y-100261841D01*
X152085000Y-100566109D01*
X152145911Y-100872327D01*
X152265391Y-101160779D01*
X152438850Y-101420379D01*
X152659621Y-101641150D01*
X152687832Y-101660000D01*
X152659621Y-101678850D01*
X152438850Y-101899621D01*
X152272889Y-102148000D01*
X152143423Y-102148000D01*
X152106000Y-102144314D01*
X152068577Y-102148000D01*
X152068574Y-102148000D01*
X151956622Y-102159026D01*
X151812985Y-102202598D01*
X151751364Y-102235535D01*
X151680607Y-102273355D01*
X151638219Y-102308143D01*
X151564578Y-102368578D01*
X151540716Y-102397654D01*
X150363654Y-103574716D01*
X150334578Y-103598578D01*
X150283532Y-103660779D01*
X150239355Y-103714608D01*
X150215702Y-103758860D01*
X150168598Y-103846986D01*
X150125026Y-103990623D01*
X150117484Y-104067201D01*
X150110314Y-104140000D01*
X150114000Y-104177423D01*
X150114001Y-111468567D01*
X150110314Y-111506000D01*
X150125027Y-111655378D01*
X150168599Y-111799015D01*
X150239355Y-111931392D01*
X150281298Y-111982499D01*
X150334579Y-112047422D01*
X150363649Y-112071279D01*
X152303159Y-114010789D01*
X152273000Y-114162408D01*
X152273000Y-114437592D01*
X152326686Y-114707490D01*
X152431995Y-114961727D01*
X152584880Y-115190535D01*
X152779465Y-115385120D01*
X153008273Y-115538005D01*
X153262510Y-115643314D01*
X153532408Y-115697000D01*
X153807592Y-115697000D01*
X153959211Y-115666841D01*
X158815369Y-120523000D01*
X158612408Y-120523000D01*
X158342510Y-120576686D01*
X158088273Y-120681995D01*
X157859465Y-120834880D01*
X157664880Y-121029465D01*
X157511995Y-121258273D01*
X157480000Y-121335515D01*
X157448005Y-121258273D01*
X157295120Y-121029465D01*
X157100535Y-120834880D01*
X156871727Y-120681995D01*
X156617490Y-120576686D01*
X156347592Y-120523000D01*
X156072408Y-120523000D01*
X155802510Y-120576686D01*
X155548273Y-120681995D01*
X155319465Y-120834880D01*
X155124880Y-121029465D01*
X154971995Y-121258273D01*
X154942308Y-121329943D01*
X154937636Y-121316977D01*
X154875656Y-121201020D01*
X154635565Y-121134040D01*
X153849605Y-121920000D01*
X154635565Y-122705960D01*
X154875656Y-122638980D01*
X154939485Y-122503240D01*
X154971995Y-122581727D01*
X155124880Y-122810535D01*
X155319465Y-123005120D01*
X155548273Y-123158005D01*
X155802510Y-123263314D01*
X156072408Y-123317000D01*
X156347592Y-123317000D01*
X156617490Y-123263314D01*
X156871727Y-123158005D01*
X157100535Y-123005120D01*
X157295120Y-122810535D01*
X157448005Y-122581727D01*
X157480000Y-122504485D01*
X157511995Y-122581727D01*
X157664880Y-122810535D01*
X157859465Y-123005120D01*
X158088273Y-123158005D01*
X158342510Y-123263314D01*
X158612408Y-123317000D01*
X158887592Y-123317000D01*
X159157490Y-123263314D01*
X159411727Y-123158005D01*
X159640535Y-123005120D01*
X159835120Y-122810535D01*
X159988005Y-122581727D01*
X160020000Y-122504485D01*
X160051995Y-122581727D01*
X160204880Y-122810535D01*
X160399465Y-123005120D01*
X160628273Y-123158005D01*
X160882510Y-123263314D01*
X161152408Y-123317000D01*
X161427592Y-123317000D01*
X161697490Y-123263314D01*
X161951727Y-123158005D01*
X162180535Y-123005120D01*
X162375120Y-122810535D01*
X162528005Y-122581727D01*
X162617900Y-122364702D01*
X175716903Y-122364702D01*
X175788486Y-122608671D01*
X176043996Y-122729571D01*
X176318184Y-122798300D01*
X176600512Y-122812217D01*
X176880130Y-122770787D01*
X177146292Y-122675603D01*
X177271514Y-122608671D01*
X177343097Y-122364702D01*
X176530000Y-121551605D01*
X175716903Y-122364702D01*
X162617900Y-122364702D01*
X162633314Y-122327490D01*
X162687000Y-122057592D01*
X162687000Y-121864702D01*
X166826903Y-121864702D01*
X166898486Y-122108671D01*
X167153996Y-122229571D01*
X167428184Y-122298300D01*
X167710512Y-122312217D01*
X167990130Y-122270787D01*
X168256292Y-122175603D01*
X168381514Y-122108671D01*
X168453097Y-121864702D01*
X167640000Y-121051605D01*
X166826903Y-121864702D01*
X162687000Y-121864702D01*
X162687000Y-121782408D01*
X162633314Y-121512510D01*
X162528005Y-121258273D01*
X162375120Y-121029465D01*
X162180535Y-120834880D01*
X161951727Y-120681995D01*
X161697490Y-120576686D01*
X161427592Y-120523000D01*
X161152408Y-120523000D01*
X161000790Y-120553159D01*
X156144630Y-115697000D01*
X156347592Y-115697000D01*
X156617490Y-115643314D01*
X156871727Y-115538005D01*
X157100535Y-115385120D01*
X157295120Y-115190535D01*
X157448005Y-114961727D01*
X157480000Y-114884485D01*
X157511995Y-114961727D01*
X157664880Y-115190535D01*
X157859465Y-115385120D01*
X157988001Y-115471005D01*
X157988001Y-116548567D01*
X157984314Y-116586000D01*
X157999027Y-116735378D01*
X158042599Y-116879015D01*
X158113355Y-117011392D01*
X158184721Y-117098351D01*
X158208579Y-117127422D01*
X158237649Y-117151279D01*
X160470721Y-119384352D01*
X160494578Y-119413422D01*
X160610608Y-119508645D01*
X160742985Y-119579402D01*
X160886622Y-119622974D01*
X160998574Y-119634000D01*
X160998576Y-119634000D01*
X161035999Y-119637686D01*
X161073422Y-119634000D01*
X166201928Y-119634000D01*
X166201928Y-119672000D01*
X166214188Y-119796482D01*
X166250498Y-119916180D01*
X166309463Y-120026494D01*
X166388815Y-120123185D01*
X166401758Y-120133807D01*
X166282429Y-120385996D01*
X166213700Y-120660184D01*
X166199783Y-120942512D01*
X166241213Y-121222130D01*
X166336397Y-121488292D01*
X166403329Y-121613514D01*
X166647298Y-121685097D01*
X167460395Y-120872000D01*
X167446253Y-120857858D01*
X167625858Y-120678253D01*
X167640000Y-120692395D01*
X167654143Y-120678253D01*
X167833748Y-120857858D01*
X167819605Y-120872000D01*
X168632702Y-121685097D01*
X168876671Y-121613514D01*
X168957584Y-121442512D01*
X175089783Y-121442512D01*
X175131213Y-121722130D01*
X175226397Y-121988292D01*
X175293329Y-122113514D01*
X175537298Y-122185097D01*
X176350395Y-121372000D01*
X176709605Y-121372000D01*
X177522702Y-122185097D01*
X177766671Y-122113514D01*
X177887571Y-121858004D01*
X177956300Y-121583816D01*
X177970217Y-121301488D01*
X177928787Y-121021870D01*
X177833603Y-120755708D01*
X177766671Y-120630486D01*
X177522702Y-120558903D01*
X176709605Y-121372000D01*
X176350395Y-121372000D01*
X175537298Y-120558903D01*
X175293329Y-120630486D01*
X175172429Y-120885996D01*
X175103700Y-121160184D01*
X175089783Y-121442512D01*
X168957584Y-121442512D01*
X168997571Y-121358004D01*
X169066300Y-121083816D01*
X169080217Y-120801488D01*
X169038787Y-120521870D01*
X168943603Y-120255708D01*
X168878384Y-120133691D01*
X168891185Y-120123185D01*
X168970537Y-120026494D01*
X169029502Y-119916180D01*
X169065812Y-119796482D01*
X169078072Y-119672000D01*
X169078072Y-118072000D01*
X169065812Y-117947518D01*
X169029502Y-117827820D01*
X168970537Y-117717506D01*
X168891185Y-117620815D01*
X168794494Y-117541463D01*
X168684180Y-117482498D01*
X168564482Y-117446188D01*
X168440000Y-117433928D01*
X166840000Y-117433928D01*
X166715518Y-117446188D01*
X166595820Y-117482498D01*
X166485506Y-117541463D01*
X166388815Y-117620815D01*
X166309463Y-117717506D01*
X166250498Y-117827820D01*
X166214188Y-117947518D01*
X166201928Y-118072000D01*
X166201928Y-118110000D01*
X161351631Y-118110000D01*
X159512000Y-116270370D01*
X159512000Y-115471005D01*
X159640535Y-115385120D01*
X159835120Y-115190535D01*
X159988005Y-114961727D01*
X160020000Y-114884485D01*
X160051995Y-114961727D01*
X160204880Y-115190535D01*
X160399465Y-115385120D01*
X160628273Y-115538005D01*
X160882510Y-115643314D01*
X161152408Y-115697000D01*
X161427592Y-115697000D01*
X161697490Y-115643314D01*
X161951727Y-115538005D01*
X162180535Y-115385120D01*
X162375120Y-115190535D01*
X162528005Y-114961727D01*
X162633314Y-114707490D01*
X162687000Y-114437592D01*
X162687000Y-114162408D01*
X162633314Y-113892510D01*
X162528005Y-113638273D01*
X162455660Y-113530000D01*
X164981928Y-113530000D01*
X164994188Y-113654482D01*
X165030498Y-113774180D01*
X165089463Y-113884494D01*
X165168815Y-113981185D01*
X165265506Y-114060537D01*
X165375820Y-114119502D01*
X165495518Y-114155812D01*
X165620000Y-114168072D01*
X166084250Y-114165000D01*
X166243000Y-114006250D01*
X166243000Y-113157000D01*
X166497000Y-113157000D01*
X166497000Y-114006250D01*
X166655750Y-114165000D01*
X167120000Y-114168072D01*
X167244482Y-114155812D01*
X167364180Y-114119502D01*
X167474494Y-114060537D01*
X167571185Y-113981185D01*
X167650537Y-113884494D01*
X167709502Y-113774180D01*
X167745812Y-113654482D01*
X167758072Y-113530000D01*
X167755000Y-113315750D01*
X167596250Y-113157000D01*
X166497000Y-113157000D01*
X166243000Y-113157000D01*
X165143750Y-113157000D01*
X164985000Y-113315750D01*
X164981928Y-113530000D01*
X162455660Y-113530000D01*
X162375120Y-113409465D01*
X162180535Y-113214880D01*
X161951727Y-113061995D01*
X161697490Y-112956686D01*
X161427592Y-112903000D01*
X161152408Y-112903000D01*
X160882510Y-112956686D01*
X160628273Y-113061995D01*
X160399465Y-113214880D01*
X160204880Y-113409465D01*
X160051995Y-113638273D01*
X160020000Y-113715515D01*
X159988005Y-113638273D01*
X159835120Y-113409465D01*
X159640535Y-113214880D01*
X159411727Y-113061995D01*
X159157490Y-112956686D01*
X158887592Y-112903000D01*
X158612408Y-112903000D01*
X158342510Y-112956686D01*
X158088273Y-113061995D01*
X157859465Y-113214880D01*
X157664880Y-113409465D01*
X157511995Y-113638273D01*
X157480000Y-113715515D01*
X157448005Y-113638273D01*
X157295120Y-113409465D01*
X157100535Y-113214880D01*
X156871727Y-113061995D01*
X156617490Y-112956686D01*
X156347592Y-112903000D01*
X156072408Y-112903000D01*
X155802510Y-112956686D01*
X155548273Y-113061995D01*
X155319465Y-113214880D01*
X155124880Y-113409465D01*
X154971995Y-113638273D01*
X154940000Y-113715515D01*
X154908005Y-113638273D01*
X154755120Y-113409465D01*
X154560535Y-113214880D01*
X154331727Y-113061995D01*
X154077490Y-112956686D01*
X153807592Y-112903000D01*
X153532408Y-112903000D01*
X153380789Y-112933159D01*
X151638000Y-111190370D01*
X151638000Y-104455630D01*
X152332466Y-103761164D01*
X152424021Y-103898186D01*
X152365506Y-103929463D01*
X152268815Y-104008815D01*
X152189463Y-104105506D01*
X152130498Y-104215820D01*
X152094188Y-104335518D01*
X152081928Y-104460000D01*
X152081928Y-106360000D01*
X152094188Y-106484482D01*
X152130498Y-106604180D01*
X152189463Y-106714494D01*
X152268815Y-106811185D01*
X152365506Y-106890537D01*
X152475820Y-106949502D01*
X152595518Y-106985812D01*
X152720000Y-106998072D01*
X154620000Y-106998072D01*
X154744482Y-106985812D01*
X154864180Y-106949502D01*
X154974494Y-106890537D01*
X155071185Y-106811185D01*
X155150537Y-106714494D01*
X155209502Y-106604180D01*
X155245812Y-106484482D01*
X155258072Y-106360000D01*
X155258072Y-104460000D01*
X155245812Y-104335518D01*
X155209502Y-104215820D01*
X155150537Y-104105506D01*
X155071185Y-104008815D01*
X154974494Y-103929463D01*
X154968015Y-103926000D01*
X157734001Y-103926000D01*
X157734000Y-104538025D01*
X157713038Y-104558987D01*
X157566939Y-104777641D01*
X157466304Y-105020595D01*
X157415000Y-105278514D01*
X157415000Y-105541486D01*
X157466304Y-105799405D01*
X157566939Y-106042359D01*
X157713038Y-106261013D01*
X157898987Y-106446962D01*
X158117641Y-106593061D01*
X158360595Y-106693696D01*
X158618514Y-106745000D01*
X158881486Y-106745000D01*
X159139405Y-106693696D01*
X159382359Y-106593061D01*
X159601013Y-106446962D01*
X159786962Y-106261013D01*
X159933061Y-106042359D01*
X160033696Y-105799405D01*
X160085000Y-105541486D01*
X160085000Y-105278514D01*
X161225000Y-105278514D01*
X161225000Y-105541486D01*
X161276304Y-105799405D01*
X161376939Y-106042359D01*
X161523038Y-106261013D01*
X161708987Y-106446962D01*
X161927641Y-106593061D01*
X162170595Y-106693696D01*
X162428514Y-106745000D01*
X162691486Y-106745000D01*
X162949405Y-106693696D01*
X163192359Y-106593061D01*
X163411013Y-106446962D01*
X163596962Y-106261013D01*
X163743061Y-106042359D01*
X163843696Y-105799405D01*
X163895000Y-105541486D01*
X163895000Y-105278514D01*
X163843696Y-105020595D01*
X163743061Y-104777641D01*
X163596962Y-104558987D01*
X163411013Y-104373038D01*
X163192359Y-104226939D01*
X162949405Y-104126304D01*
X162691486Y-104075000D01*
X162428514Y-104075000D01*
X162170595Y-104126304D01*
X161927641Y-104226939D01*
X161708987Y-104373038D01*
X161523038Y-104558987D01*
X161376939Y-104777641D01*
X161276304Y-105020595D01*
X161225000Y-105278514D01*
X160085000Y-105278514D01*
X160033696Y-105020595D01*
X159933061Y-104777641D01*
X159786962Y-104558987D01*
X159766000Y-104538025D01*
X159766000Y-103926000D01*
X165354001Y-103926000D01*
X165354000Y-104538025D01*
X165333038Y-104558987D01*
X165186939Y-104777641D01*
X165086304Y-105020595D01*
X165035000Y-105278514D01*
X165035000Y-105541486D01*
X165086304Y-105799405D01*
X165186939Y-106042359D01*
X165333038Y-106261013D01*
X165518987Y-106446962D01*
X165737641Y-106593061D01*
X165980595Y-106693696D01*
X166030706Y-106703664D01*
X165857649Y-106876721D01*
X165828579Y-106900578D01*
X165804722Y-106929648D01*
X165804721Y-106929649D01*
X165733355Y-107016608D01*
X165662599Y-107148985D01*
X165619027Y-107292622D01*
X165604314Y-107442000D01*
X165608001Y-107479433D01*
X165608000Y-109476707D01*
X165486377Y-109541716D01*
X165313551Y-109683551D01*
X165171716Y-109856377D01*
X165066324Y-110053553D01*
X165001423Y-110267501D01*
X164979509Y-110490000D01*
X165001423Y-110712499D01*
X165066324Y-110926447D01*
X165171716Y-111123623D01*
X165172846Y-111125000D01*
X165171716Y-111126377D01*
X165066324Y-111323553D01*
X165001423Y-111537501D01*
X164979509Y-111760000D01*
X165001423Y-111982499D01*
X165066324Y-112196447D01*
X165072297Y-112207621D01*
X165030498Y-112285820D01*
X164994188Y-112405518D01*
X164981928Y-112530000D01*
X164985000Y-112744250D01*
X165143750Y-112903000D01*
X166243000Y-112903000D01*
X166243000Y-112895000D01*
X166497000Y-112895000D01*
X166497000Y-112903000D01*
X167596250Y-112903000D01*
X167755000Y-112744250D01*
X167758072Y-112530000D01*
X167757284Y-112522000D01*
X170353562Y-112522000D01*
X170413038Y-112611013D01*
X170598987Y-112796962D01*
X170817641Y-112943061D01*
X171060595Y-113043696D01*
X171318514Y-113095000D01*
X171581486Y-113095000D01*
X171839405Y-113043696D01*
X172082359Y-112943061D01*
X172301013Y-112796962D01*
X172486962Y-112611013D01*
X172633061Y-112392359D01*
X172733696Y-112149405D01*
X172785000Y-111891486D01*
X172785000Y-111628514D01*
X172733696Y-111370595D01*
X172633061Y-111127641D01*
X172486962Y-110908987D01*
X172301013Y-110723038D01*
X172082359Y-110576939D01*
X171839405Y-110476304D01*
X171581486Y-110425000D01*
X171318514Y-110425000D01*
X171060595Y-110476304D01*
X170817641Y-110576939D01*
X170598987Y-110723038D01*
X170413038Y-110908987D01*
X170353562Y-110998000D01*
X167635430Y-110998000D01*
X167673676Y-110926447D01*
X167738577Y-110712499D01*
X167760491Y-110490000D01*
X167738577Y-110267501D01*
X167673676Y-110053553D01*
X167568284Y-109856377D01*
X167426449Y-109683551D01*
X167253623Y-109541716D01*
X167132000Y-109476708D01*
X167132000Y-107757630D01*
X168713279Y-106176351D01*
X168784645Y-106089393D01*
X168855401Y-105957016D01*
X168898973Y-105813379D01*
X168899572Y-105807295D01*
X168996939Y-106042359D01*
X169143038Y-106261013D01*
X169328987Y-106446962D01*
X169547641Y-106593061D01*
X169790595Y-106693696D01*
X170048514Y-106745000D01*
X170311486Y-106745000D01*
X170569405Y-106693696D01*
X170812359Y-106593061D01*
X171031013Y-106446962D01*
X171216962Y-106261013D01*
X171363061Y-106042359D01*
X171463696Y-105799405D01*
X171515000Y-105541486D01*
X171515000Y-105278514D01*
X171463696Y-105020595D01*
X171363061Y-104777641D01*
X171216962Y-104558987D01*
X171031013Y-104373038D01*
X170812359Y-104226939D01*
X170569405Y-104126304D01*
X170311486Y-104075000D01*
X170281841Y-104075000D01*
X168433712Y-102226872D01*
X168401896Y-102188104D01*
X168247190Y-102061140D01*
X168070687Y-101966798D01*
X167879171Y-101908702D01*
X167729902Y-101894000D01*
X167680000Y-101889085D01*
X167630098Y-101894000D01*
X166633902Y-101894000D01*
X166584000Y-101889085D01*
X166534098Y-101894000D01*
X159013902Y-101894000D01*
X158964000Y-101889085D01*
X158914098Y-101894000D01*
X154895529Y-101894000D01*
X154680379Y-101678850D01*
X154652168Y-101660000D01*
X154680379Y-101641150D01*
X154901150Y-101420379D01*
X155074609Y-101160779D01*
X155194089Y-100872327D01*
X155255000Y-100566109D01*
X155255000Y-100253891D01*
X155194089Y-99947673D01*
X155074609Y-99659221D01*
X154901150Y-99399621D01*
X154680379Y-99178850D01*
X154420779Y-99005391D01*
X154132327Y-98885911D01*
X153826109Y-98825000D01*
X153521841Y-98825000D01*
X152355355Y-97658514D01*
X157415000Y-97658514D01*
X157415000Y-97921486D01*
X157466304Y-98179405D01*
X157566939Y-98422359D01*
X157713038Y-98641013D01*
X157898987Y-98826962D01*
X158117641Y-98973061D01*
X158360595Y-99073696D01*
X158618514Y-99125000D01*
X158881486Y-99125000D01*
X159139405Y-99073696D01*
X159382359Y-98973061D01*
X159601013Y-98826962D01*
X159786962Y-98641013D01*
X159933061Y-98422359D01*
X160033696Y-98179405D01*
X160085000Y-97921486D01*
X160085000Y-97658514D01*
X161225000Y-97658514D01*
X161225000Y-97921486D01*
X161276304Y-98179405D01*
X161376939Y-98422359D01*
X161523038Y-98641013D01*
X161708987Y-98826962D01*
X161927641Y-98973061D01*
X162170595Y-99073696D01*
X162428514Y-99125000D01*
X162691486Y-99125000D01*
X162949405Y-99073696D01*
X163192359Y-98973061D01*
X163411013Y-98826962D01*
X163596962Y-98641013D01*
X163743061Y-98422359D01*
X163843696Y-98179405D01*
X163895000Y-97921486D01*
X163895000Y-97658514D01*
X165035000Y-97658514D01*
X165035000Y-97921486D01*
X165086304Y-98179405D01*
X165186939Y-98422359D01*
X165333038Y-98641013D01*
X165518987Y-98826962D01*
X165737641Y-98973061D01*
X165980595Y-99073696D01*
X166238514Y-99125000D01*
X166501486Y-99125000D01*
X166759405Y-99073696D01*
X167002359Y-98973061D01*
X167221013Y-98826962D01*
X167406962Y-98641013D01*
X167553061Y-98422359D01*
X167653696Y-98179405D01*
X167705000Y-97921486D01*
X167705000Y-97658514D01*
X168845000Y-97658514D01*
X168845000Y-97921486D01*
X168896304Y-98179405D01*
X168996939Y-98422359D01*
X169143038Y-98641013D01*
X169328987Y-98826962D01*
X169547641Y-98973061D01*
X169790595Y-99073696D01*
X170048514Y-99125000D01*
X170311486Y-99125000D01*
X170569405Y-99073696D01*
X170812359Y-98973061D01*
X171031013Y-98826962D01*
X171216962Y-98641013D01*
X171363061Y-98422359D01*
X171463696Y-98179405D01*
X171515000Y-97921486D01*
X171515000Y-97658514D01*
X172655000Y-97658514D01*
X172655000Y-97921486D01*
X172706304Y-98179405D01*
X172806939Y-98422359D01*
X172953038Y-98641013D01*
X173138987Y-98826962D01*
X173357641Y-98973061D01*
X173600595Y-99073696D01*
X173858514Y-99125000D01*
X174121486Y-99125000D01*
X174379405Y-99073696D01*
X174622359Y-98973061D01*
X174841013Y-98826962D01*
X175026962Y-98641013D01*
X175173061Y-98422359D01*
X175273696Y-98179405D01*
X175284850Y-98123330D01*
X176507278Y-98123330D01*
X176597147Y-98369123D01*
X176733241Y-98592660D01*
X176910330Y-98785351D01*
X177121608Y-98939792D01*
X177358956Y-99050047D01*
X177466671Y-99082716D01*
X177673000Y-98959374D01*
X177673000Y-97917000D01*
X177927000Y-97917000D01*
X177927000Y-98959374D01*
X178133329Y-99082716D01*
X178241044Y-99050047D01*
X178478392Y-98939792D01*
X178689670Y-98785351D01*
X178866759Y-98592660D01*
X179002853Y-98369123D01*
X179092722Y-98123330D01*
X178970201Y-97917000D01*
X177927000Y-97917000D01*
X177673000Y-97917000D01*
X176629799Y-97917000D01*
X176507278Y-98123330D01*
X175284850Y-98123330D01*
X175325000Y-97921486D01*
X175325000Y-97658514D01*
X175284851Y-97456670D01*
X176507278Y-97456670D01*
X176629799Y-97663000D01*
X177673000Y-97663000D01*
X177673000Y-96620626D01*
X177927000Y-96620626D01*
X177927000Y-97663000D01*
X178970201Y-97663000D01*
X179092722Y-97456670D01*
X179002853Y-97210877D01*
X178866759Y-96987340D01*
X178689670Y-96794649D01*
X178478392Y-96640208D01*
X178241044Y-96529953D01*
X178133329Y-96497284D01*
X177927000Y-96620626D01*
X177673000Y-96620626D01*
X177466671Y-96497284D01*
X177358956Y-96529953D01*
X177121608Y-96640208D01*
X176910330Y-96794649D01*
X176733241Y-96987340D01*
X176597147Y-97210877D01*
X176507278Y-97456670D01*
X175284851Y-97456670D01*
X175273696Y-97400595D01*
X175173061Y-97157641D01*
X175026962Y-96938987D01*
X174841013Y-96753038D01*
X174622359Y-96606939D01*
X174379405Y-96506304D01*
X174121486Y-96455000D01*
X173858514Y-96455000D01*
X173600595Y-96506304D01*
X173357641Y-96606939D01*
X173138987Y-96753038D01*
X172953038Y-96938987D01*
X172806939Y-97157641D01*
X172706304Y-97400595D01*
X172655000Y-97658514D01*
X171515000Y-97658514D01*
X171463696Y-97400595D01*
X171363061Y-97157641D01*
X171216962Y-96938987D01*
X171031013Y-96753038D01*
X170812359Y-96606939D01*
X170569405Y-96506304D01*
X170311486Y-96455000D01*
X170048514Y-96455000D01*
X169790595Y-96506304D01*
X169547641Y-96606939D01*
X169328987Y-96753038D01*
X169143038Y-96938987D01*
X168996939Y-97157641D01*
X168896304Y-97400595D01*
X168845000Y-97658514D01*
X167705000Y-97658514D01*
X167653696Y-97400595D01*
X167553061Y-97157641D01*
X167406962Y-96938987D01*
X167221013Y-96753038D01*
X167002359Y-96606939D01*
X166759405Y-96506304D01*
X166501486Y-96455000D01*
X166238514Y-96455000D01*
X165980595Y-96506304D01*
X165737641Y-96606939D01*
X165518987Y-96753038D01*
X165333038Y-96938987D01*
X165186939Y-97157641D01*
X165086304Y-97400595D01*
X165035000Y-97658514D01*
X163895000Y-97658514D01*
X163843696Y-97400595D01*
X163743061Y-97157641D01*
X163596962Y-96938987D01*
X163411013Y-96753038D01*
X163192359Y-96606939D01*
X162949405Y-96506304D01*
X162691486Y-96455000D01*
X162428514Y-96455000D01*
X162170595Y-96506304D01*
X161927641Y-96606939D01*
X161708987Y-96753038D01*
X161523038Y-96938987D01*
X161376939Y-97157641D01*
X161276304Y-97400595D01*
X161225000Y-97658514D01*
X160085000Y-97658514D01*
X160033696Y-97400595D01*
X159933061Y-97157641D01*
X159786962Y-96938987D01*
X159601013Y-96753038D01*
X159382359Y-96606939D01*
X159139405Y-96506304D01*
X158881486Y-96455000D01*
X158618514Y-96455000D01*
X158360595Y-96506304D01*
X158117641Y-96606939D01*
X157898987Y-96753038D01*
X157713038Y-96938987D01*
X157566939Y-97157641D01*
X157466304Y-97400595D01*
X157415000Y-97658514D01*
X152355355Y-97658514D01*
X152137712Y-97440872D01*
X152105896Y-97402104D01*
X151951190Y-97275140D01*
X151774687Y-97180798D01*
X151583171Y-97122702D01*
X151433902Y-97108000D01*
X151384000Y-97103085D01*
X151334098Y-97108000D01*
X140027556Y-97108000D01*
X139894175Y-96908382D01*
X139631618Y-96645825D01*
X139322882Y-96439534D01*
X138979834Y-96297439D01*
X138615656Y-96225000D01*
X138244344Y-96225000D01*
X137880166Y-96297439D01*
X137537118Y-96439534D01*
X137228382Y-96645825D01*
X136965825Y-96908382D01*
X136759534Y-97217118D01*
X136617439Y-97560166D01*
X136545000Y-97924344D01*
X127635322Y-97924344D01*
X127635322Y-70474000D01*
X147051928Y-70474000D01*
X147051928Y-72274000D01*
X147064188Y-72398482D01*
X147100498Y-72518180D01*
X147159463Y-72628494D01*
X147238815Y-72725185D01*
X147335506Y-72804537D01*
X147445820Y-72863502D01*
X147565518Y-72899812D01*
X147690000Y-72912072D01*
X149490000Y-72912072D01*
X149614482Y-72899812D01*
X149734180Y-72863502D01*
X149844494Y-72804537D01*
X149941185Y-72725185D01*
X150020537Y-72628494D01*
X150079502Y-72518180D01*
X150115812Y-72398482D01*
X150128072Y-72274000D01*
X150128072Y-70474000D01*
X155941928Y-70474000D01*
X155941928Y-72274000D01*
X155954188Y-72398482D01*
X155990498Y-72518180D01*
X156049463Y-72628494D01*
X156128815Y-72725185D01*
X156225506Y-72804537D01*
X156335820Y-72863502D01*
X156455518Y-72899812D01*
X156580000Y-72912072D01*
X158380000Y-72912072D01*
X158504482Y-72899812D01*
X158624180Y-72863502D01*
X158734494Y-72804537D01*
X158831185Y-72725185D01*
X158910537Y-72628494D01*
X158969502Y-72518180D01*
X159005812Y-72398482D01*
X159018072Y-72274000D01*
X159018072Y-70474000D01*
X159005812Y-70349518D01*
X158969502Y-70229820D01*
X158910537Y-70119506D01*
X158831185Y-70022815D01*
X158734494Y-69943463D01*
X158624180Y-69884498D01*
X158605873Y-69878944D01*
X158672312Y-69812505D01*
X158840299Y-69561095D01*
X158956011Y-69281743D01*
X159015000Y-68985184D01*
X159015000Y-68682816D01*
X158956011Y-68386257D01*
X158840299Y-68106905D01*
X158672312Y-67855495D01*
X158458505Y-67641688D01*
X158207095Y-67473701D01*
X157927743Y-67357989D01*
X157631184Y-67299000D01*
X157328816Y-67299000D01*
X157032257Y-67357989D01*
X156752905Y-67473701D01*
X156501495Y-67641688D01*
X156287688Y-67855495D01*
X156119701Y-68106905D01*
X156003989Y-68386257D01*
X155945000Y-68682816D01*
X155945000Y-68985184D01*
X156003989Y-69281743D01*
X156119701Y-69561095D01*
X156287688Y-69812505D01*
X156354127Y-69878944D01*
X156335820Y-69884498D01*
X156225506Y-69943463D01*
X156128815Y-70022815D01*
X156049463Y-70119506D01*
X155990498Y-70229820D01*
X155954188Y-70349518D01*
X155941928Y-70474000D01*
X150128072Y-70474000D01*
X150115812Y-70349518D01*
X150079502Y-70229820D01*
X150020537Y-70119506D01*
X149941185Y-70022815D01*
X149844494Y-69943463D01*
X149734180Y-69884498D01*
X149715873Y-69878944D01*
X149782312Y-69812505D01*
X149950299Y-69561095D01*
X150066011Y-69281743D01*
X150125000Y-68985184D01*
X150125000Y-68682816D01*
X150066011Y-68386257D01*
X149950299Y-68106905D01*
X149782312Y-67855495D01*
X149568505Y-67641688D01*
X149317095Y-67473701D01*
X149037743Y-67357989D01*
X148741184Y-67299000D01*
X148438816Y-67299000D01*
X148142257Y-67357989D01*
X147862905Y-67473701D01*
X147611495Y-67641688D01*
X147397688Y-67855495D01*
X147229701Y-68106905D01*
X147113989Y-68386257D01*
X147055000Y-68682816D01*
X147055000Y-68985184D01*
X147113989Y-69281743D01*
X147229701Y-69561095D01*
X147397688Y-69812505D01*
X147464127Y-69878944D01*
X147445820Y-69884498D01*
X147335506Y-69943463D01*
X147238815Y-70022815D01*
X147159463Y-70119506D01*
X147100498Y-70229820D01*
X147064188Y-70349518D01*
X147051928Y-70474000D01*
X127635322Y-70474000D01*
X127635322Y-45802717D01*
X146306339Y-45802717D01*
X146306741Y-45860266D01*
X146306339Y-45917881D01*
X146307204Y-45926709D01*
X146346067Y-46296463D01*
X146357643Y-46352854D01*
X146368436Y-46409432D01*
X146371000Y-46417923D01*
X146480942Y-46773087D01*
X146503239Y-46826129D01*
X146524826Y-46879559D01*
X146528991Y-46887391D01*
X146705822Y-47214436D01*
X146738018Y-47262168D01*
X146769553Y-47310358D01*
X146775159Y-47317232D01*
X147012148Y-47603702D01*
X147053005Y-47644274D01*
X147093295Y-47685417D01*
X147100129Y-47691071D01*
X147388246Y-47926054D01*
X147436208Y-47957920D01*
X147483721Y-47990452D01*
X147491524Y-47994671D01*
X147819796Y-48169216D01*
X147872988Y-48191140D01*
X147925958Y-48213843D01*
X147934432Y-48216466D01*
X148290355Y-48323926D01*
X148346816Y-48335105D01*
X148403166Y-48347083D01*
X148411988Y-48348010D01*
X148782004Y-48384290D01*
X148782007Y-48384290D01*
X148812790Y-48387322D01*
X159035210Y-48387322D01*
X159067882Y-48384104D01*
X159092595Y-48384104D01*
X159101416Y-48383177D01*
X159470890Y-48341734D01*
X159527228Y-48329759D01*
X159583700Y-48318577D01*
X159592174Y-48315954D01*
X159946561Y-48203536D01*
X159999469Y-48180860D01*
X160052725Y-48158909D01*
X160060528Y-48154690D01*
X160386331Y-47975578D01*
X160433848Y-47943042D01*
X160481804Y-47911180D01*
X160488639Y-47905526D01*
X160773447Y-47666544D01*
X160813739Y-47625399D01*
X160854594Y-47584828D01*
X160860195Y-47577960D01*
X160860200Y-47577955D01*
X160860204Y-47577950D01*
X161093166Y-47288204D01*
X161124697Y-47240019D01*
X161156896Y-47192282D01*
X161161061Y-47184450D01*
X161333309Y-46854968D01*
X161354857Y-46801636D01*
X161377195Y-46748495D01*
X161379758Y-46740003D01*
X161484730Y-46383338D01*
X161495518Y-46326784D01*
X161507098Y-46270371D01*
X161507964Y-46261543D01*
X161541661Y-45891283D01*
X161541259Y-45833734D01*
X161541661Y-45776119D01*
X161540796Y-45767292D01*
X161501933Y-45397537D01*
X161490352Y-45341120D01*
X161479564Y-45284568D01*
X161477000Y-45276076D01*
X161367058Y-44920913D01*
X161344756Y-44867859D01*
X161323174Y-44814441D01*
X161319009Y-44806609D01*
X161319009Y-44806608D01*
X161319006Y-44806604D01*
X161142177Y-44479564D01*
X161109999Y-44431858D01*
X161078447Y-44383642D01*
X161072840Y-44376768D01*
X160835852Y-44090298D01*
X160794995Y-44049726D01*
X160754705Y-44008583D01*
X160747871Y-44002929D01*
X160459754Y-43767946D01*
X160411792Y-43736080D01*
X160364279Y-43703548D01*
X160356476Y-43699329D01*
X160028204Y-43524784D01*
X159974986Y-43502849D01*
X159922041Y-43480157D01*
X159913568Y-43477534D01*
X159557645Y-43370074D01*
X159501201Y-43358898D01*
X159444833Y-43346917D01*
X159436012Y-43345990D01*
X159065996Y-43309710D01*
X159065993Y-43309710D01*
X159035210Y-43306678D01*
X148812790Y-43306678D01*
X148780118Y-43309896D01*
X148755405Y-43309896D01*
X148746584Y-43310823D01*
X148377110Y-43352266D01*
X148320780Y-43364240D01*
X148264299Y-43375423D01*
X148255826Y-43378046D01*
X147901439Y-43490464D01*
X147848512Y-43513149D01*
X147795274Y-43535092D01*
X147787472Y-43539310D01*
X147461669Y-43718422D01*
X147414167Y-43750948D01*
X147366196Y-43782820D01*
X147359361Y-43788474D01*
X147074553Y-44027456D01*
X147034261Y-44068601D01*
X146993406Y-44109172D01*
X146987799Y-44116046D01*
X146754834Y-44405797D01*
X146723314Y-44453964D01*
X146691104Y-44501718D01*
X146686939Y-44509550D01*
X146514690Y-44839032D01*
X146493109Y-44892446D01*
X146470806Y-44945505D01*
X146468242Y-44953996D01*
X146363270Y-45310662D01*
X146352488Y-45367185D01*
X146340901Y-45423629D01*
X146340036Y-45432457D01*
X146306339Y-45802717D01*
X127635322Y-45802717D01*
X127635322Y-42037322D01*
X180212678Y-42037322D01*
X180212679Y-111067204D01*
G37*
%TD.AperFunction*%
%TD*%
M02*
