%TF.GenerationSoftware,KiCad,Pcbnew,5.1.10-88a1d61d58~90~ubuntu20.04.1*%
%TF.CreationDate,2021-11-21T06:34:40+05:30*%
%TF.ProjectId,555_badge,3535355f-6261-4646-9765-2e6b69636164,rev?*%
%TF.SameCoordinates,Original*%
%TF.FileFunction,Legend,Top*%
%TF.FilePolarity,Positive*%
%FSLAX46Y46*%
G04 Gerber Fmt 4.6, Leading zero omitted, Abs format (unit mm)*
G04 Created by KiCad (PCBNEW 5.1.10-88a1d61d58~90~ubuntu20.04.1) date 2021-11-21 06:34:40*
%MOMM*%
%LPD*%
G01*
G04 APERTURE LIST*
%ADD10C,0.100000*%
%ADD11C,0.120000*%
%ADD12C,0.150000*%
%ADD13C,0.203200*%
G04 APERTURE END LIST*
D10*
%TO.C,BAT1*%
X142341600Y-97332800D02*
X139496800Y-97332800D01*
X134518400Y-97332800D02*
X137363200Y-97332800D01*
X142341600Y-100076000D02*
X142341600Y-97332800D01*
X134518400Y-100076000D02*
X134518400Y-97332800D01*
X149656800Y-110642400D02*
G75*
G03*
X149656800Y-110642400I-11226800J0D01*
G01*
D11*
%TO.C,C1*%
X169365000Y-117317225D02*
X168865000Y-117317225D01*
X169115000Y-117067225D02*
X169115000Y-117567225D01*
X167924000Y-122473000D02*
X167356000Y-122473000D01*
X168158000Y-122433000D02*
X167122000Y-122433000D01*
X168317000Y-122393000D02*
X166963000Y-122393000D01*
X168445000Y-122353000D02*
X166835000Y-122353000D01*
X168555000Y-122313000D02*
X166725000Y-122313000D01*
X168651000Y-122273000D02*
X166629000Y-122273000D01*
X168738000Y-122233000D02*
X166542000Y-122233000D01*
X168818000Y-122193000D02*
X166462000Y-122193000D01*
X168891000Y-122153000D02*
X166389000Y-122153000D01*
X168959000Y-122113000D02*
X166321000Y-122113000D01*
X169023000Y-122073000D02*
X166257000Y-122073000D01*
X169083000Y-122033000D02*
X166197000Y-122033000D01*
X169140000Y-121993000D02*
X166140000Y-121993000D01*
X169194000Y-121953000D02*
X166086000Y-121953000D01*
X169245000Y-121913000D02*
X166035000Y-121913000D01*
X166600000Y-121873000D02*
X165987000Y-121873000D01*
X169293000Y-121873000D02*
X168680000Y-121873000D01*
X166600000Y-121833000D02*
X165941000Y-121833000D01*
X169339000Y-121833000D02*
X168680000Y-121833000D01*
X166600000Y-121793000D02*
X165897000Y-121793000D01*
X169383000Y-121793000D02*
X168680000Y-121793000D01*
X166600000Y-121753000D02*
X165855000Y-121753000D01*
X169425000Y-121753000D02*
X168680000Y-121753000D01*
X166600000Y-121713000D02*
X165814000Y-121713000D01*
X169466000Y-121713000D02*
X168680000Y-121713000D01*
X166600000Y-121673000D02*
X165776000Y-121673000D01*
X169504000Y-121673000D02*
X168680000Y-121673000D01*
X166600000Y-121633000D02*
X165739000Y-121633000D01*
X169541000Y-121633000D02*
X168680000Y-121633000D01*
X166600000Y-121593000D02*
X165703000Y-121593000D01*
X169577000Y-121593000D02*
X168680000Y-121593000D01*
X166600000Y-121553000D02*
X165669000Y-121553000D01*
X169611000Y-121553000D02*
X168680000Y-121553000D01*
X166600000Y-121513000D02*
X165636000Y-121513000D01*
X169644000Y-121513000D02*
X168680000Y-121513000D01*
X166600000Y-121473000D02*
X165605000Y-121473000D01*
X169675000Y-121473000D02*
X168680000Y-121473000D01*
X166600000Y-121433000D02*
X165575000Y-121433000D01*
X169705000Y-121433000D02*
X168680000Y-121433000D01*
X166600000Y-121393000D02*
X165545000Y-121393000D01*
X169735000Y-121393000D02*
X168680000Y-121393000D01*
X166600000Y-121353000D02*
X165518000Y-121353000D01*
X169762000Y-121353000D02*
X168680000Y-121353000D01*
X166600000Y-121313000D02*
X165491000Y-121313000D01*
X169789000Y-121313000D02*
X168680000Y-121313000D01*
X166600000Y-121273000D02*
X165465000Y-121273000D01*
X169815000Y-121273000D02*
X168680000Y-121273000D01*
X166600000Y-121233000D02*
X165440000Y-121233000D01*
X169840000Y-121233000D02*
X168680000Y-121233000D01*
X166600000Y-121193000D02*
X165416000Y-121193000D01*
X169864000Y-121193000D02*
X168680000Y-121193000D01*
X166600000Y-121153000D02*
X165393000Y-121153000D01*
X169887000Y-121153000D02*
X168680000Y-121153000D01*
X166600000Y-121113000D02*
X165372000Y-121113000D01*
X169908000Y-121113000D02*
X168680000Y-121113000D01*
X166600000Y-121073000D02*
X165350000Y-121073000D01*
X169930000Y-121073000D02*
X168680000Y-121073000D01*
X166600000Y-121033000D02*
X165330000Y-121033000D01*
X169950000Y-121033000D02*
X168680000Y-121033000D01*
X166600000Y-120993000D02*
X165311000Y-120993000D01*
X169969000Y-120993000D02*
X168680000Y-120993000D01*
X166600000Y-120953000D02*
X165292000Y-120953000D01*
X169988000Y-120953000D02*
X168680000Y-120953000D01*
X166600000Y-120913000D02*
X165275000Y-120913000D01*
X170005000Y-120913000D02*
X168680000Y-120913000D01*
X166600000Y-120873000D02*
X165258000Y-120873000D01*
X170022000Y-120873000D02*
X168680000Y-120873000D01*
X166600000Y-120833000D02*
X165242000Y-120833000D01*
X170038000Y-120833000D02*
X168680000Y-120833000D01*
X166600000Y-120793000D02*
X165226000Y-120793000D01*
X170054000Y-120793000D02*
X168680000Y-120793000D01*
X166600000Y-120753000D02*
X165212000Y-120753000D01*
X170068000Y-120753000D02*
X168680000Y-120753000D01*
X166600000Y-120713000D02*
X165198000Y-120713000D01*
X170082000Y-120713000D02*
X168680000Y-120713000D01*
X166600000Y-120673000D02*
X165185000Y-120673000D01*
X170095000Y-120673000D02*
X168680000Y-120673000D01*
X166600000Y-120633000D02*
X165172000Y-120633000D01*
X170108000Y-120633000D02*
X168680000Y-120633000D01*
X166600000Y-120593000D02*
X165160000Y-120593000D01*
X170120000Y-120593000D02*
X168680000Y-120593000D01*
X166600000Y-120552000D02*
X165149000Y-120552000D01*
X170131000Y-120552000D02*
X168680000Y-120552000D01*
X166600000Y-120512000D02*
X165139000Y-120512000D01*
X170141000Y-120512000D02*
X168680000Y-120512000D01*
X166600000Y-120472000D02*
X165129000Y-120472000D01*
X170151000Y-120472000D02*
X168680000Y-120472000D01*
X166600000Y-120432000D02*
X165120000Y-120432000D01*
X170160000Y-120432000D02*
X168680000Y-120432000D01*
X166600000Y-120392000D02*
X165112000Y-120392000D01*
X170168000Y-120392000D02*
X168680000Y-120392000D01*
X166600000Y-120352000D02*
X165104000Y-120352000D01*
X170176000Y-120352000D02*
X168680000Y-120352000D01*
X166600000Y-120312000D02*
X165097000Y-120312000D01*
X170183000Y-120312000D02*
X168680000Y-120312000D01*
X166600000Y-120272000D02*
X165090000Y-120272000D01*
X170190000Y-120272000D02*
X168680000Y-120272000D01*
X166600000Y-120232000D02*
X165084000Y-120232000D01*
X170196000Y-120232000D02*
X168680000Y-120232000D01*
X166600000Y-120192000D02*
X165079000Y-120192000D01*
X170201000Y-120192000D02*
X168680000Y-120192000D01*
X166600000Y-120152000D02*
X165075000Y-120152000D01*
X170205000Y-120152000D02*
X168680000Y-120152000D01*
X166600000Y-120112000D02*
X165071000Y-120112000D01*
X170209000Y-120112000D02*
X168680000Y-120112000D01*
X166600000Y-120072000D02*
X165067000Y-120072000D01*
X170213000Y-120072000D02*
X168680000Y-120072000D01*
X166600000Y-120032000D02*
X165064000Y-120032000D01*
X170216000Y-120032000D02*
X168680000Y-120032000D01*
X166600000Y-119992000D02*
X165062000Y-119992000D01*
X170218000Y-119992000D02*
X168680000Y-119992000D01*
X166600000Y-119952000D02*
X165061000Y-119952000D01*
X170219000Y-119952000D02*
X168680000Y-119952000D01*
X170220000Y-119912000D02*
X168680000Y-119912000D01*
X166600000Y-119912000D02*
X165060000Y-119912000D01*
X170220000Y-119872000D02*
X168680000Y-119872000D01*
X166600000Y-119872000D02*
X165060000Y-119872000D01*
X170260000Y-119872000D02*
G75*
G03*
X170260000Y-119872000I-2620000J0D01*
G01*
%TO.C,C2*%
X178684000Y-116936759D02*
X178054000Y-116936759D01*
X178369000Y-116621759D02*
X178369000Y-117251759D01*
X176932000Y-123363000D02*
X176128000Y-123363000D01*
X177163000Y-123323000D02*
X175897000Y-123323000D01*
X177332000Y-123283000D02*
X175728000Y-123283000D01*
X177470000Y-123243000D02*
X175590000Y-123243000D01*
X177589000Y-123203000D02*
X175471000Y-123203000D01*
X177695000Y-123163000D02*
X175365000Y-123163000D01*
X177792000Y-123123000D02*
X175268000Y-123123000D01*
X177880000Y-123083000D02*
X175180000Y-123083000D01*
X177962000Y-123043000D02*
X175098000Y-123043000D01*
X178039000Y-123003000D02*
X175021000Y-123003000D01*
X178111000Y-122963000D02*
X174949000Y-122963000D01*
X178180000Y-122923000D02*
X174880000Y-122923000D01*
X178244000Y-122883000D02*
X174816000Y-122883000D01*
X178306000Y-122843000D02*
X174754000Y-122843000D01*
X178364000Y-122803000D02*
X174696000Y-122803000D01*
X178420000Y-122763000D02*
X174640000Y-122763000D01*
X178474000Y-122723000D02*
X174586000Y-122723000D01*
X178525000Y-122683000D02*
X174535000Y-122683000D01*
X178574000Y-122643000D02*
X174486000Y-122643000D01*
X178622000Y-122603000D02*
X174438000Y-122603000D01*
X178667000Y-122563000D02*
X174393000Y-122563000D01*
X178712000Y-122523000D02*
X174348000Y-122523000D01*
X178754000Y-122483000D02*
X174306000Y-122483000D01*
X178795000Y-122443000D02*
X174265000Y-122443000D01*
X175490000Y-122403000D02*
X174225000Y-122403000D01*
X178835000Y-122403000D02*
X177570000Y-122403000D01*
X175490000Y-122363000D02*
X174187000Y-122363000D01*
X178873000Y-122363000D02*
X177570000Y-122363000D01*
X175490000Y-122323000D02*
X174150000Y-122323000D01*
X178910000Y-122323000D02*
X177570000Y-122323000D01*
X175490000Y-122283000D02*
X174114000Y-122283000D01*
X178946000Y-122283000D02*
X177570000Y-122283000D01*
X175490000Y-122243000D02*
X174080000Y-122243000D01*
X178980000Y-122243000D02*
X177570000Y-122243000D01*
X175490000Y-122203000D02*
X174046000Y-122203000D01*
X179014000Y-122203000D02*
X177570000Y-122203000D01*
X175490000Y-122163000D02*
X174014000Y-122163000D01*
X179046000Y-122163000D02*
X177570000Y-122163000D01*
X175490000Y-122123000D02*
X173982000Y-122123000D01*
X179078000Y-122123000D02*
X177570000Y-122123000D01*
X175490000Y-122083000D02*
X173952000Y-122083000D01*
X179108000Y-122083000D02*
X177570000Y-122083000D01*
X175490000Y-122043000D02*
X173923000Y-122043000D01*
X179137000Y-122043000D02*
X177570000Y-122043000D01*
X175490000Y-122003000D02*
X173894000Y-122003000D01*
X179166000Y-122003000D02*
X177570000Y-122003000D01*
X175490000Y-121963000D02*
X173866000Y-121963000D01*
X179194000Y-121963000D02*
X177570000Y-121963000D01*
X175490000Y-121923000D02*
X173840000Y-121923000D01*
X179220000Y-121923000D02*
X177570000Y-121923000D01*
X175490000Y-121883000D02*
X173814000Y-121883000D01*
X179246000Y-121883000D02*
X177570000Y-121883000D01*
X175490000Y-121843000D02*
X173788000Y-121843000D01*
X179272000Y-121843000D02*
X177570000Y-121843000D01*
X175490000Y-121803000D02*
X173764000Y-121803000D01*
X179296000Y-121803000D02*
X177570000Y-121803000D01*
X175490000Y-121763000D02*
X173740000Y-121763000D01*
X179320000Y-121763000D02*
X177570000Y-121763000D01*
X175490000Y-121723000D02*
X173718000Y-121723000D01*
X179342000Y-121723000D02*
X177570000Y-121723000D01*
X175490000Y-121683000D02*
X173696000Y-121683000D01*
X179364000Y-121683000D02*
X177570000Y-121683000D01*
X175490000Y-121643000D02*
X173674000Y-121643000D01*
X179386000Y-121643000D02*
X177570000Y-121643000D01*
X175490000Y-121603000D02*
X173654000Y-121603000D01*
X179406000Y-121603000D02*
X177570000Y-121603000D01*
X175490000Y-121563000D02*
X173634000Y-121563000D01*
X179426000Y-121563000D02*
X177570000Y-121563000D01*
X175490000Y-121523000D02*
X173614000Y-121523000D01*
X179446000Y-121523000D02*
X177570000Y-121523000D01*
X175490000Y-121483000D02*
X173596000Y-121483000D01*
X179464000Y-121483000D02*
X177570000Y-121483000D01*
X175490000Y-121443000D02*
X173578000Y-121443000D01*
X179482000Y-121443000D02*
X177570000Y-121443000D01*
X175490000Y-121403000D02*
X173560000Y-121403000D01*
X179500000Y-121403000D02*
X177570000Y-121403000D01*
X175490000Y-121363000D02*
X173544000Y-121363000D01*
X179516000Y-121363000D02*
X177570000Y-121363000D01*
X175490000Y-121323000D02*
X173528000Y-121323000D01*
X179532000Y-121323000D02*
X177570000Y-121323000D01*
X175490000Y-121283000D02*
X173512000Y-121283000D01*
X179548000Y-121283000D02*
X177570000Y-121283000D01*
X175490000Y-121243000D02*
X173497000Y-121243000D01*
X179563000Y-121243000D02*
X177570000Y-121243000D01*
X175490000Y-121203000D02*
X173483000Y-121203000D01*
X179577000Y-121203000D02*
X177570000Y-121203000D01*
X175490000Y-121163000D02*
X173469000Y-121163000D01*
X179591000Y-121163000D02*
X177570000Y-121163000D01*
X175490000Y-121123000D02*
X173456000Y-121123000D01*
X179604000Y-121123000D02*
X177570000Y-121123000D01*
X175490000Y-121083000D02*
X173444000Y-121083000D01*
X179616000Y-121083000D02*
X177570000Y-121083000D01*
X175490000Y-121043000D02*
X173432000Y-121043000D01*
X179628000Y-121043000D02*
X177570000Y-121043000D01*
X175490000Y-121003000D02*
X173420000Y-121003000D01*
X179640000Y-121003000D02*
X177570000Y-121003000D01*
X175490000Y-120963000D02*
X173409000Y-120963000D01*
X179651000Y-120963000D02*
X177570000Y-120963000D01*
X175490000Y-120923000D02*
X173399000Y-120923000D01*
X179661000Y-120923000D02*
X177570000Y-120923000D01*
X175490000Y-120883000D02*
X173389000Y-120883000D01*
X179671000Y-120883000D02*
X177570000Y-120883000D01*
X175490000Y-120843000D02*
X173380000Y-120843000D01*
X179680000Y-120843000D02*
X177570000Y-120843000D01*
X175490000Y-120802000D02*
X173371000Y-120802000D01*
X179689000Y-120802000D02*
X177570000Y-120802000D01*
X175490000Y-120762000D02*
X173363000Y-120762000D01*
X179697000Y-120762000D02*
X177570000Y-120762000D01*
X175490000Y-120722000D02*
X173355000Y-120722000D01*
X179705000Y-120722000D02*
X177570000Y-120722000D01*
X175490000Y-120682000D02*
X173348000Y-120682000D01*
X179712000Y-120682000D02*
X177570000Y-120682000D01*
X175490000Y-120642000D02*
X173341000Y-120642000D01*
X179719000Y-120642000D02*
X177570000Y-120642000D01*
X175490000Y-120602000D02*
X173335000Y-120602000D01*
X179725000Y-120602000D02*
X177570000Y-120602000D01*
X175490000Y-120562000D02*
X173329000Y-120562000D01*
X179731000Y-120562000D02*
X177570000Y-120562000D01*
X175490000Y-120522000D02*
X173324000Y-120522000D01*
X179736000Y-120522000D02*
X177570000Y-120522000D01*
X175490000Y-120482000D02*
X173319000Y-120482000D01*
X179741000Y-120482000D02*
X177570000Y-120482000D01*
X175490000Y-120442000D02*
X173315000Y-120442000D01*
X179745000Y-120442000D02*
X177570000Y-120442000D01*
X175490000Y-120402000D02*
X173312000Y-120402000D01*
X179748000Y-120402000D02*
X177570000Y-120402000D01*
X175490000Y-120362000D02*
X173308000Y-120362000D01*
X179752000Y-120362000D02*
X177570000Y-120362000D01*
X179754000Y-120322000D02*
X173306000Y-120322000D01*
X179757000Y-120282000D02*
X173303000Y-120282000D01*
X179758000Y-120242000D02*
X173302000Y-120242000D01*
X179760000Y-120202000D02*
X173300000Y-120202000D01*
X179760000Y-120162000D02*
X173300000Y-120162000D01*
X179760000Y-120122000D02*
X173300000Y-120122000D01*
X179800000Y-120122000D02*
G75*
G03*
X179800000Y-120122000I-3270000J0D01*
G01*
%TO.C,D1*%
X156244000Y-71664000D02*
X156400000Y-71664000D01*
X158560000Y-71664000D02*
X158716000Y-71664000D01*
X156401392Y-68431665D02*
G75*
G03*
X156244484Y-71664000I1078608J-1672335D01*
G01*
X158558608Y-68431665D02*
G75*
G02*
X158715516Y-71664000I-1078608J-1672335D01*
G01*
X156400163Y-69062870D02*
G75*
G03*
X156400000Y-71144961I1079837J-1041130D01*
G01*
X158559837Y-69062870D02*
G75*
G02*
X158560000Y-71144961I-1079837J-1041130D01*
G01*
%TO.C,D2*%
X149670000Y-71664000D02*
X149826000Y-71664000D01*
X147354000Y-71664000D02*
X147510000Y-71664000D01*
X149669837Y-69062870D02*
G75*
G02*
X149670000Y-71144961I-1079837J-1041130D01*
G01*
X147510163Y-69062870D02*
G75*
G03*
X147510000Y-71144961I1079837J-1041130D01*
G01*
X149668608Y-68431665D02*
G75*
G02*
X149825516Y-71664000I-1078608J-1672335D01*
G01*
X147511392Y-68431665D02*
G75*
G03*
X147354484Y-71664000I1078608J-1672335D01*
G01*
D10*
%TO.C,Q1*%
X167970000Y-109410000D02*
X167670000Y-109260000D01*
X167970000Y-109410000D02*
X167970000Y-109710000D01*
X167970000Y-113810000D02*
X167970000Y-114110000D01*
X167970000Y-114110000D02*
X167670000Y-114260000D01*
D12*
X164820000Y-109810000D02*
G75*
G03*
X164770000Y-113660000I1900000J-1950000D01*
G01*
D11*
%TO.C,R1*%
X157830000Y-103520000D02*
X159670000Y-103520000D01*
X159670000Y-103520000D02*
X159670000Y-99680000D01*
X159670000Y-99680000D02*
X157830000Y-99680000D01*
X157830000Y-99680000D02*
X157830000Y-103520000D01*
X158750000Y-104470000D02*
X158750000Y-103520000D01*
X158750000Y-98730000D02*
X158750000Y-99680000D01*
%TO.C,R2*%
X163480000Y-99680000D02*
X161640000Y-99680000D01*
X161640000Y-99680000D02*
X161640000Y-103520000D01*
X161640000Y-103520000D02*
X163480000Y-103520000D01*
X163480000Y-103520000D02*
X163480000Y-99680000D01*
X162560000Y-98730000D02*
X162560000Y-99680000D01*
X162560000Y-104470000D02*
X162560000Y-103520000D01*
%TO.C,R3*%
X173990000Y-98730000D02*
X173990000Y-99680000D01*
X173990000Y-104470000D02*
X173990000Y-103520000D01*
X173070000Y-99680000D02*
X173070000Y-103520000D01*
X174910000Y-99680000D02*
X173070000Y-99680000D01*
X174910000Y-103520000D02*
X174910000Y-99680000D01*
X173070000Y-103520000D02*
X174910000Y-103520000D01*
%TO.C,R4*%
X177800000Y-98730000D02*
X177800000Y-99680000D01*
X177800000Y-104470000D02*
X177800000Y-103520000D01*
X176880000Y-99680000D02*
X176880000Y-103520000D01*
X178720000Y-99680000D02*
X176880000Y-99680000D01*
X178720000Y-103520000D02*
X178720000Y-99680000D01*
X176880000Y-103520000D02*
X178720000Y-103520000D01*
%TO.C,R5*%
X173340000Y-110840000D02*
X173340000Y-112680000D01*
X173340000Y-112680000D02*
X177180000Y-112680000D01*
X177180000Y-112680000D02*
X177180000Y-110840000D01*
X177180000Y-110840000D02*
X173340000Y-110840000D01*
X172390000Y-111760000D02*
X173340000Y-111760000D01*
X178130000Y-111760000D02*
X177180000Y-111760000D01*
%TO.C,R6*%
X170180000Y-98730000D02*
X170180000Y-99680000D01*
X170180000Y-104470000D02*
X170180000Y-103520000D01*
X169260000Y-99680000D02*
X169260000Y-103520000D01*
X171100000Y-99680000D02*
X169260000Y-99680000D01*
X171100000Y-103520000D02*
X171100000Y-99680000D01*
X169260000Y-103520000D02*
X171100000Y-103520000D01*
%TO.C,R7*%
X165450000Y-103520000D02*
X167290000Y-103520000D01*
X167290000Y-103520000D02*
X167290000Y-99680000D01*
X167290000Y-99680000D02*
X165450000Y-99680000D01*
X165450000Y-99680000D02*
X165450000Y-103520000D01*
X166370000Y-104470000D02*
X166370000Y-103520000D01*
X166370000Y-98730000D02*
X166370000Y-99680000D01*
D10*
%TO.C,S1*%
X155770000Y-97110000D02*
X155770000Y-97610000D01*
X155770000Y-97110000D02*
X155270000Y-97110000D01*
X155770000Y-109010000D02*
X155770000Y-108510000D01*
X155770000Y-109010000D02*
X155270000Y-109010000D01*
X151570000Y-109010000D02*
X151570000Y-108510000D01*
X151570000Y-109010000D02*
X152070000Y-109010000D01*
X151570000Y-97110000D02*
X152070000Y-97110000D01*
X151570000Y-97110000D02*
X151570000Y-97610000D01*
D13*
%TO.C,U1*%
X162560000Y-121666000D02*
X162560000Y-114554000D01*
X152400000Y-121666000D02*
X152400000Y-114554000D01*
X152400000Y-122428000D02*
G75*
G03*
X152400000Y-122428000I-254000J0D01*
G01*
%TO.C,BAT1*%
D12*
X126052271Y-111795725D02*
X126099890Y-111652868D01*
X126147509Y-111605249D01*
X126242747Y-111557630D01*
X126385604Y-111557630D01*
X126480842Y-111605249D01*
X126528461Y-111652868D01*
X126576080Y-111748106D01*
X126576080Y-112129059D01*
X125576080Y-112129059D01*
X125576080Y-111795725D01*
X125623700Y-111700487D01*
X125671319Y-111652868D01*
X125766557Y-111605249D01*
X125861795Y-111605249D01*
X125957033Y-111652868D01*
X126004652Y-111700487D01*
X126052271Y-111795725D01*
X126052271Y-112129059D01*
X126290366Y-111176678D02*
X126290366Y-110700487D01*
X126576080Y-111271916D02*
X125576080Y-110938582D01*
X126576080Y-110605249D01*
X125576080Y-110414773D02*
X125576080Y-109843344D01*
X126576080Y-110129059D02*
X125576080Y-110129059D01*
X126576080Y-108986201D02*
X126576080Y-109557630D01*
X126576080Y-109271916D02*
X125576080Y-109271916D01*
X125718938Y-109367154D01*
X125814176Y-109462392D01*
X125861795Y-109557630D01*
%TO.C,C1*%
X171747142Y-120038666D02*
X171794761Y-120086285D01*
X171842380Y-120229142D01*
X171842380Y-120324380D01*
X171794761Y-120467238D01*
X171699523Y-120562476D01*
X171604285Y-120610095D01*
X171413809Y-120657714D01*
X171270952Y-120657714D01*
X171080476Y-120610095D01*
X170985238Y-120562476D01*
X170890000Y-120467238D01*
X170842380Y-120324380D01*
X170842380Y-120229142D01*
X170890000Y-120086285D01*
X170937619Y-120038666D01*
X171842380Y-119086285D02*
X171842380Y-119657714D01*
X171842380Y-119372000D02*
X170842380Y-119372000D01*
X170985238Y-119467238D01*
X171080476Y-119562476D01*
X171128095Y-119657714D01*
%TO.C,C2*%
X181287142Y-120288666D02*
X181334761Y-120336285D01*
X181382380Y-120479142D01*
X181382380Y-120574380D01*
X181334761Y-120717238D01*
X181239523Y-120812476D01*
X181144285Y-120860095D01*
X180953809Y-120907714D01*
X180810952Y-120907714D01*
X180620476Y-120860095D01*
X180525238Y-120812476D01*
X180430000Y-120717238D01*
X180382380Y-120574380D01*
X180382380Y-120479142D01*
X180430000Y-120336285D01*
X180477619Y-120288666D01*
X180477619Y-119907714D02*
X180430000Y-119860095D01*
X180382380Y-119764857D01*
X180382380Y-119526761D01*
X180430000Y-119431523D01*
X180477619Y-119383904D01*
X180572857Y-119336285D01*
X180668095Y-119336285D01*
X180810952Y-119383904D01*
X181382380Y-119955333D01*
X181382380Y-119336285D01*
%TO.C,D1*%
X154972380Y-70842095D02*
X153972380Y-70842095D01*
X153972380Y-70604000D01*
X154020000Y-70461142D01*
X154115238Y-70365904D01*
X154210476Y-70318285D01*
X154400952Y-70270666D01*
X154543809Y-70270666D01*
X154734285Y-70318285D01*
X154829523Y-70365904D01*
X154924761Y-70461142D01*
X154972380Y-70604000D01*
X154972380Y-70842095D01*
X154972380Y-69318285D02*
X154972380Y-69889714D01*
X154972380Y-69604000D02*
X153972380Y-69604000D01*
X154115238Y-69699238D01*
X154210476Y-69794476D01*
X154258095Y-69889714D01*
%TO.C,D2*%
X146082380Y-70842095D02*
X145082380Y-70842095D01*
X145082380Y-70604000D01*
X145130000Y-70461142D01*
X145225238Y-70365904D01*
X145320476Y-70318285D01*
X145510952Y-70270666D01*
X145653809Y-70270666D01*
X145844285Y-70318285D01*
X145939523Y-70365904D01*
X146034761Y-70461142D01*
X146082380Y-70604000D01*
X146082380Y-70842095D01*
X145177619Y-69889714D02*
X145130000Y-69842095D01*
X145082380Y-69746857D01*
X145082380Y-69508761D01*
X145130000Y-69413523D01*
X145177619Y-69365904D01*
X145272857Y-69318285D01*
X145368095Y-69318285D01*
X145510952Y-69365904D01*
X146082380Y-69937333D01*
X146082380Y-69318285D01*
%TO.C,Q1*%
X163567619Y-111855238D02*
X163520000Y-111950476D01*
X163424761Y-112045714D01*
X163281904Y-112188571D01*
X163234285Y-112283809D01*
X163234285Y-112379047D01*
X163472380Y-112331428D02*
X163424761Y-112426666D01*
X163329523Y-112521904D01*
X163139047Y-112569523D01*
X162805714Y-112569523D01*
X162615238Y-112521904D01*
X162520000Y-112426666D01*
X162472380Y-112331428D01*
X162472380Y-112140952D01*
X162520000Y-112045714D01*
X162615238Y-111950476D01*
X162805714Y-111902857D01*
X163139047Y-111902857D01*
X163329523Y-111950476D01*
X163424761Y-112045714D01*
X163472380Y-112140952D01*
X163472380Y-112331428D01*
X163472380Y-110950476D02*
X163472380Y-111521904D01*
X163472380Y-111236190D02*
X162472380Y-111236190D01*
X162615238Y-111331428D01*
X162710476Y-111426666D01*
X162758095Y-111521904D01*
%TO.C,R1*%
X157282380Y-101766666D02*
X156806190Y-102100000D01*
X157282380Y-102338095D02*
X156282380Y-102338095D01*
X156282380Y-101957142D01*
X156330000Y-101861904D01*
X156377619Y-101814285D01*
X156472857Y-101766666D01*
X156615714Y-101766666D01*
X156710952Y-101814285D01*
X156758571Y-101861904D01*
X156806190Y-101957142D01*
X156806190Y-102338095D01*
X157282380Y-100814285D02*
X157282380Y-101385714D01*
X157282380Y-101100000D02*
X156282380Y-101100000D01*
X156425238Y-101195238D01*
X156520476Y-101290476D01*
X156568095Y-101385714D01*
%TO.C,R2*%
X164932380Y-101766666D02*
X164456190Y-102100000D01*
X164932380Y-102338095D02*
X163932380Y-102338095D01*
X163932380Y-101957142D01*
X163980000Y-101861904D01*
X164027619Y-101814285D01*
X164122857Y-101766666D01*
X164265714Y-101766666D01*
X164360952Y-101814285D01*
X164408571Y-101861904D01*
X164456190Y-101957142D01*
X164456190Y-102338095D01*
X164027619Y-101385714D02*
X163980000Y-101338095D01*
X163932380Y-101242857D01*
X163932380Y-101004761D01*
X163980000Y-100909523D01*
X164027619Y-100861904D01*
X164122857Y-100814285D01*
X164218095Y-100814285D01*
X164360952Y-100861904D01*
X164932380Y-101433333D01*
X164932380Y-100814285D01*
%TO.C,R3*%
X172522380Y-101766666D02*
X172046190Y-102100000D01*
X172522380Y-102338095D02*
X171522380Y-102338095D01*
X171522380Y-101957142D01*
X171570000Y-101861904D01*
X171617619Y-101814285D01*
X171712857Y-101766666D01*
X171855714Y-101766666D01*
X171950952Y-101814285D01*
X171998571Y-101861904D01*
X172046190Y-101957142D01*
X172046190Y-102338095D01*
X171522380Y-101433333D02*
X171522380Y-100814285D01*
X171903333Y-101147619D01*
X171903333Y-101004761D01*
X171950952Y-100909523D01*
X171998571Y-100861904D01*
X172093809Y-100814285D01*
X172331904Y-100814285D01*
X172427142Y-100861904D01*
X172474761Y-100909523D01*
X172522380Y-101004761D01*
X172522380Y-101290476D01*
X172474761Y-101385714D01*
X172427142Y-101433333D01*
%TO.C,R4*%
X176332380Y-101766666D02*
X175856190Y-102100000D01*
X176332380Y-102338095D02*
X175332380Y-102338095D01*
X175332380Y-101957142D01*
X175380000Y-101861904D01*
X175427619Y-101814285D01*
X175522857Y-101766666D01*
X175665714Y-101766666D01*
X175760952Y-101814285D01*
X175808571Y-101861904D01*
X175856190Y-101957142D01*
X175856190Y-102338095D01*
X175665714Y-100909523D02*
X176332380Y-100909523D01*
X175284761Y-101147619D02*
X175999047Y-101385714D01*
X175999047Y-100766666D01*
%TO.C,R5*%
X175093333Y-110292380D02*
X174760000Y-109816190D01*
X174521904Y-110292380D02*
X174521904Y-109292380D01*
X174902857Y-109292380D01*
X174998095Y-109340000D01*
X175045714Y-109387619D01*
X175093333Y-109482857D01*
X175093333Y-109625714D01*
X175045714Y-109720952D01*
X174998095Y-109768571D01*
X174902857Y-109816190D01*
X174521904Y-109816190D01*
X175998095Y-109292380D02*
X175521904Y-109292380D01*
X175474285Y-109768571D01*
X175521904Y-109720952D01*
X175617142Y-109673333D01*
X175855238Y-109673333D01*
X175950476Y-109720952D01*
X175998095Y-109768571D01*
X176045714Y-109863809D01*
X176045714Y-110101904D01*
X175998095Y-110197142D01*
X175950476Y-110244761D01*
X175855238Y-110292380D01*
X175617142Y-110292380D01*
X175521904Y-110244761D01*
X175474285Y-110197142D01*
%TO.C,R6*%
X168712380Y-101766666D02*
X168236190Y-102100000D01*
X168712380Y-102338095D02*
X167712380Y-102338095D01*
X167712380Y-101957142D01*
X167760000Y-101861904D01*
X167807619Y-101814285D01*
X167902857Y-101766666D01*
X168045714Y-101766666D01*
X168140952Y-101814285D01*
X168188571Y-101861904D01*
X168236190Y-101957142D01*
X168236190Y-102338095D01*
X167712380Y-100909523D02*
X167712380Y-101100000D01*
X167760000Y-101195238D01*
X167807619Y-101242857D01*
X167950476Y-101338095D01*
X168140952Y-101385714D01*
X168521904Y-101385714D01*
X168617142Y-101338095D01*
X168664761Y-101290476D01*
X168712380Y-101195238D01*
X168712380Y-101004761D01*
X168664761Y-100909523D01*
X168617142Y-100861904D01*
X168521904Y-100814285D01*
X168283809Y-100814285D01*
X168188571Y-100861904D01*
X168140952Y-100909523D01*
X168093333Y-101004761D01*
X168093333Y-101195238D01*
X168140952Y-101290476D01*
X168188571Y-101338095D01*
X168283809Y-101385714D01*
%TO.C,R7*%
X164902380Y-101766666D02*
X164426190Y-102100000D01*
X164902380Y-102338095D02*
X163902380Y-102338095D01*
X163902380Y-101957142D01*
X163950000Y-101861904D01*
X163997619Y-101814285D01*
X164092857Y-101766666D01*
X164235714Y-101766666D01*
X164330952Y-101814285D01*
X164378571Y-101861904D01*
X164426190Y-101957142D01*
X164426190Y-102338095D01*
X163902380Y-101433333D02*
X163902380Y-100766666D01*
X164902380Y-101195238D01*
%TO.C,S1*%
X151054761Y-103681904D02*
X151102380Y-103539047D01*
X151102380Y-103300952D01*
X151054761Y-103205714D01*
X151007142Y-103158095D01*
X150911904Y-103110476D01*
X150816666Y-103110476D01*
X150721428Y-103158095D01*
X150673809Y-103205714D01*
X150626190Y-103300952D01*
X150578571Y-103491428D01*
X150530952Y-103586666D01*
X150483333Y-103634285D01*
X150388095Y-103681904D01*
X150292857Y-103681904D01*
X150197619Y-103634285D01*
X150150000Y-103586666D01*
X150102380Y-103491428D01*
X150102380Y-103253333D01*
X150150000Y-103110476D01*
X151102380Y-102158095D02*
X151102380Y-102729523D01*
X151102380Y-102443809D02*
X150102380Y-102443809D01*
X150245238Y-102539047D01*
X150340476Y-102634285D01*
X150388095Y-102729523D01*
%TO.C,U1*%
X156718095Y-111212380D02*
X156718095Y-112021904D01*
X156765714Y-112117142D01*
X156813333Y-112164761D01*
X156908571Y-112212380D01*
X157099047Y-112212380D01*
X157194285Y-112164761D01*
X157241904Y-112117142D01*
X157289523Y-112021904D01*
X157289523Y-111212380D01*
X158289523Y-112212380D02*
X157718095Y-112212380D01*
X158003809Y-112212380D02*
X158003809Y-111212380D01*
X157908571Y-111355238D01*
X157813333Y-111450476D01*
X157718095Y-111498095D01*
%TD*%
M02*
