M48
; DRILL file {KiCad 5.1.10-88a1d61d58~90~ubuntu20.04.1} date Sun Nov 21 06:34:32 2021
; FORMAT={-:-/ absolute / inch / decimal}
; #@! TF.CreationDate,2021-11-21T06:34:32+05:30
; #@! TF.GenerationSoftware,Kicad,Pcbnew,5.1.10-88a1d61d58~90~ubuntu20.04.1
; #@! TF.FileFunction,Plated,1,2,PTH
FMAT,2
INCH
T1C0.0004
T2C0.0217
T3C0.0276
T4C0.0300
T5C0.0315
T6C0.0354
T7C0.0461
T8C0.0591
%
G90
G05
T1
X6.62Y-4.16
T2
X6.55Y-4.35
X6.55Y-4.4
X6.55Y-4.45
T3
X6.25Y-3.85
X6.25Y-4.15
X6.4Y-3.85
X6.4Y-4.15
X6.55Y-3.85
X6.55Y-4.15
X6.7Y-3.85
X6.7Y-4.15
X6.75Y-4.4
X6.85Y-3.85
X6.85Y-4.15
X7.0Y-3.85
X7.0Y-4.15
X7.05Y-4.4
T4
X6.05Y-4.5
X6.05Y-4.8
X6.15Y-4.5
X6.15Y-4.8
X6.25Y-4.5
X6.25Y-4.8
X6.35Y-4.5
X6.35Y-4.8
T5
X6.6Y-4.68
X6.6Y-4.7587
X6.95Y-4.68
X6.95Y-4.7784
T6
X5.85Y-2.71
X5.85Y-2.81
X6.05Y-3.9531
X6.05Y-4.0516
X6.05Y-4.15
X6.2Y-2.71
X6.2Y-2.81
T7
X5.45Y-4.65
T8
X5.45Y-3.8626
T0
M30
